<?xml version="1.0" standalone="no"?><!DOCTYPE svg PUBLIC "-//W3C//DTD SVG 1.1//EN" "http://www.w3.org/Graphics/SVG/1.1/DTD/svg11.dtd"><svg t="1641027533255" class="icon" viewBox="0 0 1024 1024" version="1.1" xmlns="http://www.w3.org/2000/svg" p-id="3560" xmlns:xlink="http://www.w3.org/1999/xlink" width="200" height="200"><defs><style type="text/css"></style></defs><path d="M869.194011 280.739967c3.691194-75.407957-51.661773-126.81568-125.530487-143.956569s-77.500131 44.563323-99.632352 37.703978c-16.184466-5.006275-65.066636-13.449695-97.017133-18.695076-12.941595-2.151951-46.95438-2.884212-59.895975-0.747205-31.950498 5.305157-85.181402 14.436006-101.4107 19.427337-22.13222 6.859344-25.823414-54.844867-99.632352-37.703978s-129.161904 68.548612-125.530486 143.956569-56.279501 424.143604-11.955285 501.255188 158.900674 95.119232 174.9357 113.111935 56.623216 74.720528 191.284551 72.165085c134.691223 2.570386 175.279414-54.172383 191.284551-72.165085s130.656315-35.985406 174.935699-113.111935-15.526926-425.847232-11.835731-501.240244z" fill="#FAA82B" p-id="3561"></path><path d="M523.641458 972.487668h-8.712413c-55.293191 1.031143-101.485421-7.770935-137.366218-26.197017-29.888211-15.317708-45.474913-33.459852-54.829924-44.294329-1.075976-1.240361-2.062287-2.391057-2.988821-3.392312-4.094685-4.602785-18.784741-10.311433-35.865853-16.916727-43.083856-16.752342-108.18038-42.037769-139.772219-97.136686-13.86813-24.149675-19.188232-74.720528-16.274131-154.641604 2.480722-67.965792 10.296489-144.539389 17.200665-212.10169 6.201804-60.732845 11.551794-113.201599 10.386154-136.813286-1.808237-37.106214 10.311433-70.850004 35.043927-97.570066 22.924258-24.777327 55.562184-42.635533 94.401915-51.646828 50.242083-11.671346 70.431569 11.581682 83.806544 26.89939 7.60655 8.742302 11.133359 12.179446 15.467149 10.834476 12.373719-3.825691 46.715274-10.460874 102.098129-19.591722 13.449695-2.241616 48.239573-1.494411 61.569715 0.732261 53.245848 8.831966 85.181402 14.944106 97.689618 18.859461 4.348735 1.344969 7.875544-2.092175 15.482093-10.834476 13.36003-15.392429 33.564461-38.630513 83.806544-26.89939 38.854674 8.966463 71.477657 26.89939 94.401915 51.646828 24.732495 26.720061 36.852164 60.463851 35.028983 97.555121-1.150696 23.611687 4.199294 76.080441 10.460874 136.813287 6.904177 67.562301 14.719944 144.135898 17.200666 212.10169 2.988821 79.906132-2.406001 130.49193-16.274131 154.641604-31.591839 55.024197-96.703307 80.309623-139.77222 97.136686-17.006392 6.605295-31.696448 12.313943-35.865853 16.916727-0.91159 1.001255-1.897901 2.151951-2.988821 3.392312-9.340066 10.834477-24.9716 28.976621-54.829923 44.294329-33.833455 17.394939-77.081696 26.211961-128.504364 26.211961z m-8.712413-10.356265h0.089664c124.574064 2.361169 166.432503-46.177286 184.305654-66.919705 1.120808-1.285193 2.137007-2.480722 3.078486-3.526808 5.753481-6.455854 20.010157-11.955284 39.736376-19.666443 41.738887-16.214355 104.803012-40.722688 134.586615-92.578734 29.350223-51.123785 11.10347-229.989784-2.226672-360.586323-6.246636-61.15128-11.641458-113.963749-10.460874-138.367473l5.140773 0.25405-5.140773-0.25405c3.302647-67.382972-43.337906-120.524211-121.495578-138.696244-44.204664-10.266601-61.270833 9.35501-73.719272 23.686408-7.755991 8.966463-15.093547 17.379995-26.271738 13.912962-11.955284-3.67625-44.294329-9.907942-96.344648-18.530691-12.358775-2.047342-45.743907-2.794548-58.207292-0.732261-54.142494 8.966463-88.977204 15.631534-100.723271 19.262952-11.178191 3.467032-18.515747-4.976387-26.286682-13.912962-12.44844-14.331397-29.499664-33.953008-73.704328-23.686408-78.247337 18.172032-124.798225 71.313272-121.495578 138.696244 1.195528 24.403724-4.199294 77.216193-10.460874 138.367473-13.330142 130.596538-31.591839 309.462538-2.226672 360.586323 29.783602 51.856046 92.847728 76.364379 134.49695 92.578734 19.741163 7.68127 33.99784 13.210589 39.751321 19.666443 0.926535 1.046087 1.957678 2.241616 3.063542 3.526808 17.469659 20.249263 57.8038 66.994425 175.563351 66.994426h8.742302z" fill="#C47206" p-id="3562"></path><path d="M649.321386 513.210473c-3.646362 34.132337-7.666326 77.320802 6.859344 97.136686 16.438516 22.281661 52.842357 19.113511 82.745513 14.122179 49.121275-8.219258 89.664633-49.79376 89.664633-111.214033s-40.109979-111.214033-89.664633-111.214034-83.149003 50.391524-89.604857 111.169202z" fill="#49A691" p-id="3563"></path><path d="M682.601909 486.340971a33.235691 32.951753 0 1 0 66.471381 0 33.235691 32.951753 0 1 0-66.471381 0Z" fill="#FFFFFF" p-id="3564"></path><path d="M380.566592 513.210473c3.631418 34.132337 7.666326 77.320802-6.859345 97.136686-16.438516 22.281661-52.842357 19.113511-82.745512 14.122179-49.121275-8.219258-89.664633-49.79376-89.664633-111.214033s40.109979-111.214033 89.664633-111.214034 83.104171 50.391524 89.604857 111.169202z" fill="#49A691" p-id="3565"></path><path d="M280.784799 486.340971a33.235691 32.951753 0 1 0 66.471381 0 33.235691 32.951753 0 1 0-66.471381 0Z" fill="#FFFFFF" p-id="3566"></path><path d="M260.356207 714.044307s-13.838242 51.900879-2.689939 53.260792 30.769913-16.946616 30.769913-16.946616l-14.77972-27.377601z" fill="#FFFFFF" p-id="3567"></path><path d="M258.861796 769.950206a12.418552 12.418552 0 0 1-1.49441-0.089665 6.097195 6.097195 0 0 1-4.348735-2.779603c-6.440909-9.534339 2.988821-46.401448 4.871778-53.694172l1.330026-5.036163 15.123435 14.555559 15.855696 29.395055c-2.017454 1.868013-19.367561 17.648989-31.33779 17.648989z m2.988821-54.366656c-3.9303 16.19941-8.249146 43.337906-4.662561 48.628119 0.343714 0.493155 0.58282 0.523044 0.702373 0.537988 7.382388 0.896646 20.667698-9.130848 26.989055-14.645223l-12.149558-25.599253z" fill="#C47206" p-id="3568"></path><path d="M295.773737 764.077172s4.079741 44.144888 13.36003 43.337906S328.770322 788.465953 328.770322 788.465953z" fill="#FFFFFF" p-id="3569"></path><path d="M308.819941 809.97052c-5.320102 0-9.145793-7.277779-12.373719-23.417413-2.181839-10.939085-3.183094-21.788506-3.227927-22.236829l-0.537988-5.708648 39.452439 29.111117-1.135752 1.987566c-1.120808 1.972622-11.327632 19.277896-21.639065 20.219375z m-9.833221-40.349085c0.5081 4.18435 1.344969 10.102215 2.510609 15.945361 3.721082 18.665188 7.337556 19.233064 7.397333 19.233064 5.230437-0.463267 12.373719-9.190625 16.438516-15.691311z" fill="#C47206" p-id="3570"></path><path d="M374.125682 820.446338s8.682525 34.446163 16.184467 32.682759 13.793409-17.305274 13.793409-17.305274z" fill="#FFFFFF" p-id="3571"></path><path d="M389.682496 855.774204c-4.288958 0-8.26409-5.484487-12.687545-17.439771-3.123318-8.428476-5.275269-16.901783-5.364934-17.260442l-1.389802-5.514375 37.136102 19.053734-0.881702 2.166896c-0.702373 1.718572-7.038674 16.842007-15.586702 18.844517a4.991331 4.991331 0 0 1-1.225417 0.149441z m-11.521905-30.366423c0.851814 2.899156 2.017454 6.635183 3.362424 10.341321 5.170661 14.241733 8.204314 14.944106 8.234202 14.944106 3.9303-0.926535 8.458364-8.129593 11.02875-13.61408z" fill="#C47206" p-id="3572"></path><path d="M363.978635 812.750124s8.831966-34.371443 1.046087-35.058872-22.326494 13.86813-22.326494 13.86813z" fill="#FFFFFF" p-id="3573"></path><path d="M363.978635 812.750124l-25.629141-21.385015 3.706138-3.706138c1.494411-1.359914 14.495782-13.210589 23.163363-12.523161a4.976387 4.976387 0 0 1 3.750971 2.122063c4.722337 6.635183-1.255305 31.203292-2.495666 36.060127z m-20.174543-20.368816l18.844517 14.944106c2.988821-13.28531 3.990076-25.270482 2.107119-27.048831-4.303902-0.32877-15.810864 7.726103-20.951636 12.104725z" fill="#C47206" p-id="3574"></path><path d="M768.201745 710.666939s14.406118 54.695426 3.27276 56.05534-30.784857-16.871895-30.784858-16.871895z" fill="#FFFFFF" p-id="3575"></path><path d="M770.278976 769.367386c-11.955284 0-29.320335-15.766031-31.382622-17.634045l0.687429-0.941479 27.900645-44.921981 3.736027 6.934065c1.942734 7.292724 11.312688 44.159832 4.856834 53.709115a6.127083 6.127083 0 0 1-4.333791 2.76466 12.597881 12.597881 0 0 1-1.464522 0.089665z m-26.092408-19.845773c6.321357 5.514375 19.576778 15.54187 26.89939 14.645224 0.119553 0 0.358659 0 0.702373-0.537988 3.586585-5.305157-1.075976-33.967952-5.006276-50.167362z" fill="#C47206" p-id="3576"></path><path d="M735.20516 762.493097s-4.064797 44.144888-13.345086 43.337906-19.636555-18.949126-19.636555-18.949126z" fill="#FFFFFF" p-id="3577"></path><path d="M722.1739 808.386445h-0.552932c-10.311433-0.941479-20.503313-18.246753-21.639064-20.219375l-1.135752-1.987566 39.452438-29.141005-0.523043 5.723592c0 0.448323-1.061031 11.297744-3.242871 22.236829-3.212983 16.169522-7.053618 23.387525-12.358776 23.387525z m-16.543124-20.921748c4.079741 6.500686 11.223023 15.213099 16.438516 15.691311s3.67625-0.567876 7.397332-19.233064c1.16564-5.843145 2.00251-11.761011 2.525554-15.94536z" fill="#C47206" p-id="3578"></path><path d="M656.868159 818.862263s-8.697469 34.371443-16.19941 32.682759-13.763521-17.305274-13.763521-17.305274z" fill="#FFFFFF" p-id="3579"></path><path d="M641.311345 854.190129a4.916611 4.916611 0 0 1-1.225416-0.149441c-8.548028-2.00251-14.944106-17.125945-15.586702-18.844517l-0.881703-2.166896 37.136103-19.053734-1.389802 5.514375c-0.089665 0.343714-2.241616 8.831966-5.379878 17.260442-4.423455 11.955284-8.383643 17.439771-12.672602 17.439771z m-11.118414-18.769797c2.570386 5.484487 7.09845 12.687546 11.073582 13.61408 0 0 2.988821-0.627652 8.204314-14.869385 1.344969-3.706138 2.495666-7.472053 3.362424-10.356265z" fill="#C47206" p-id="3580"></path><path d="M665.162138 816.022883s-8.831966-34.371443-1.046088-35.043927 22.819649 13.195645 22.819649 13.195645z" fill="#FFFFFF" p-id="3581"></path><path d="M663.891889 821.402761l-1.225417-4.737281c-1.240361-4.856834-7.218003-29.439888-2.495666-36.075071a5.021219 5.021219 0 0 1 3.750971-2.181839c8.667581-0.687429 21.698841 11.163247 23.163364 12.52316l1.82318 1.688684z m0.493155-37.868363c-1.882957 1.763404-0.881702 13.748577 2.107119 27.033887l18.919238-16.005137c-5.125828-4.378623-16.662678-11.327632-21.026357-11.02875zM552.827296 841.950906h-113.814307c-18.231809 0-47.522256-11.402353-68.847495-22.0575-10.460874-5.230437-44.996702-23.432357-50.092641-37.958028-1.74846-5.021219-7.203059-9.340066-14.555559-11.566737l-4.229182-1.285193c-11.237967-3.392312-19.427337-10.759756-21.833338-19.711276l-5.738537-21.101077a15.392429 15.392429 0 0 0-5.559207-7.845655l-4.483232-3.541753c-9.056128-7.218003-24.837103-8.353755-35.940574-2.58533a5.143761 5.143761 0 0 1-4.737281-9.130849c14.660168-7.621494 34.909431-5.977642 47.103821 3.67625l4.483231 3.541753a25.644085 25.644085 0 0 1 9.071072 13.180701l5.738537 21.101077c1.494411 5.42471 7.188115 10.251656 14.944105 12.582937l4.229182 1.270249c10.640203 3.227927 18.396194 9.788389 21.280407 18.007647 2.047342 5.828201 18.157088 18.739908 44.996701 32.159715 25.4797 12.747322 50.690406 20.921748 64.259654 20.921748h113.844196a5.140772 5.140772 0 0 1 0 10.281545z" fill="#C47206" p-id="3582"></path><path d="M487.387058 842.025627a5.140772 5.140772 0 0 1 0-10.281545c0.164385 0 17.604156-0.074721 103.472987-0.07472 46.550889 0 104.17536-38.660401 109.241411-53.14124 2.884212-8.219258 10.640203-14.77972 21.280407-18.007647l4.154461-1.195528c7.696214-2.33128 13.449695-7.158227 14.944106-12.582937l5.723592-21.101077a25.763638 25.763638 0 0 1 9.086016-13.180701l4.483232-3.541753c12.19439-9.713669 32.443653-11.297744 47.103821-3.67625a5.143761 5.143761 0 1 1-4.737282 9.130848c-11.10347-5.783369-26.89939-4.632673-35.955518 2.585331l-4.483231 3.541753a15.511982 15.511982 0 0 0-5.574152 7.845655l-5.738536 21.101077c-2.435889 8.966463-10.595371 16.318963-21.818394 19.711275l-4.229182 1.285193c-7.367444 2.226672-12.807098 6.545518-14.570503 11.566738-7.3525 20.921748-71.358104 60.015528-118.940136 60.015528-85.823998 0-103.263769 0.074721-103.428155 0.07472zM407.226876 674.845918a2.58533 2.58533 0 0 1-2.555442-2.226672c-0.32877-2.555442-3.198039-25.210706 0.194273-33.056361 5.110884-11.86562 26.720061-8.607805 29.170894-8.204314a2.576364 2.576364 0 0 1-0.851814 5.080996c-5.544263-0.926535-20.592977-1.793293-23.596742 5.155716-2.406001 5.559207-0.672485 23.791016 0.179329 30.351479a2.555442 2.555442 0 0 1-2.211728 2.884212zM445.573451 674.845918a2.570386 2.570386 0 0 1-2.241616-1.300137c-6.560462-11.581682-15.990193-12.403608-16.438516-12.418552a2.576364 2.576364 0 0 1 0.32877-5.140772c0.5081 0 12.538105 0.896646 20.548145 15.03377a2.555442 2.555442 0 0 1-2.241615 3.825691zM622.571437 674.845918h-0.343715a2.58533 2.58533 0 0 1-2.211727-2.884212c0.866758-6.560462 2.58533-24.792271 0.194273-30.351479-2.988821-6.949009-18.052479-6.082251-23.596742-5.155716a2.576364 2.576364 0 0 1-0.851814-5.080996c2.450833-0.403491 24.045066-3.646362 29.170894 8.204314 3.377368 7.845655 0.523044 30.500919 0.179329 33.056361a2.555442 2.555442 0 0 1-2.540498 2.211728zM584.284639 674.845918a2.600274 2.600274 0 0 1-1.270249-0.32877 2.555442 2.555442 0 0 1-0.971367-3.496921c7.995096-14.137124 20.040046-14.944106 20.548145-15.03377a2.574869 2.574869 0 0 1 0.313826 5.140772c-0.433379 0-9.833221 0.851814-16.438516 12.418552a2.525554 2.525554 0 0 1-2.181839 1.300137zM420.108695 432.288141a5.140772 5.140772 0 0 1-5.140772-5.140772v-25.673974a5.140772 5.140772 0 0 1 10.281544 0v25.673974a5.140772 5.140772 0 0 1-5.140772 5.140772zM609.749394 432.288141a5.140772 5.140772 0 0 1-5.140772-5.140772v-25.673974a5.140772 5.140772 0 1 1 10.266601 0v25.673974a5.125828 5.125828 0 0 1-5.125829 5.140772z" fill="#C47206" p-id="3583"></path></svg>