<?xml version="1.0" standalone="no"?><!DOCTYPE svg PUBLIC "-//W3C//DTD SVG 1.1//EN" "http://www.w3.org/Graphics/SVG/1.1/DTD/svg11.dtd"><svg t="1641033210933" class="icon" viewBox="0 0 1292 1024" version="1.1" xmlns="http://www.w3.org/2000/svg" p-id="7295" xmlns:xlink="http://www.w3.org/1999/xlink" width="252.34375" height="200"><defs><style type="text/css"></style></defs><path d="M453.770639 378.266847a17.334343 17.334343 0 0 0-10.963972-29.092805c-25.120352-2.657933-60.814652-2.75905-92.59428 10.63173-56.336614 23.77694-133.893351 55.065428-207.723206 50.052914-43.335857-2.889057-93.316544 22.231294-127.118512 43.48031-14.084153 8.85496-8.797179 30.551779 7.786008 32.025198l85.414974 7.554884a17.43546 17.43546 0 0 1 13.390779 8.378266l9.013859 15.037542a17.406569 17.406569 0 0 0 23.964728 5.980348l50.948522-30.493998a17.334343 17.334343 0 0 1 25.755944 10.487277 17.334343 17.334343 0 0 0 26.001514 10.371715l63.313687-39.00227a17.334343 17.334343 0 0 1 16.640969-0.881163l8.667171 4.131352a17.334343 17.334343 0 0 0 20.295626-3.914673z" fill="#d4237a" p-id="7296"></path><path d="M146.042721 532.008021A24.556985 24.556985 0 0 1 124.865933 520.061769l-8.999413-15.080878a10.241707 10.241707 0 0 0-7.829345-4.896951l-85.414973-7.525994a24.556985 24.556985 0 0 1-10.992862-45.358197c34.986482-22.02906 86.180573-47.669442 131.452098-44.578151 69.33737 4.709163 141.881594-23.112457 204.42968-49.503993 33.36861-14.084153 70.695227-13.838584 96.11893-11.166206a24.556985 24.556985 0 0 1 15.514237 41.183509l-87.29286 94.717737a24.556985 24.556985 0 0 1-28.861681 5.561435l-8.667171-4.131352a10.1117 10.1117 0 0 0-9.736123 0.520031l-63.299241 39.002271a24.556985 24.556985 0 0 1-36.719916-14.661965 10.1117 10.1117 0 0 0-15.066432-6.139247l-50.962968 30.493998a24.383642 24.383642 0 0 1-12.495172 3.510205z m-10.675066-115.143371c-39.753426 0-84.649373 22.823551-116.053424 42.599147a10.1117 10.1117 0 0 0 4.579156 18.778871l85.414973 7.554884a24.672548 24.672548 0 0 1 18.93777 11.85958l9.028303 15.037542a10.198372 10.198372 0 0 0 13.954146 3.495759l50.948522-30.493998a24.556985 24.556985 0 0 1 36.445455 14.835308 10.1117 10.1117 0 0 0 15.181995 6.06702l63.313687-39.002271a24.556985 24.556985 0 0 1 23.53137-1.256739l8.667171 4.131351a10.1117 10.1117 0 0 0 11.874025-2.282355l87.249524-94.818854a10.1117 10.1117 0 0 0-6.413706-17.016546c-23.733604-2.51348-58.445625-2.78794-88.982959 10.111699-59.225671 24.975899-127.118513 51.150756-194.317981 51.165202q-8.36382 0-16.69875-0.563366-3.293525-0.202234-6.659277-0.202234z" fill="#d4237a" p-id="7297"></path><path d="M142.532517 409.858686c-43.335857-2.889057-93.316544 22.231294-127.118513 43.48031-14.084153 8.85496-8.797179 30.551779 7.786009 32.025198l85.414974 7.554884a17.43546 17.43546 0 0 1 13.390779 8.378266l9.013858 15.037542a17.406569 17.406569 0 0 0 23.921393 5.980348l19.443355-11.6429c-11.772908-19.587807-25.770389-45.719329-26.853786-60.771316-0.852272-11.845134 4.030235-26.738223 9.635005-39.522302-4.853616-0.028891-9.765013-0.187789-14.633074-0.52003z" fill="#d4237a" p-id="7298"></path><path d="M146.042721 532.008021A24.556985 24.556985 0 0 1 124.865933 520.061769l-8.999413-15.080878a10.241707 10.241707 0 0 0-7.829345-4.896951l-85.414973-7.525994a24.556985 24.556985 0 0 1-10.992862-45.358197c34.986482-22.02906 86.180573-47.669442 131.452098-44.578151 4.53582 0.303351 9.317209 0.476694 14.199715 0.505585h10.992863l-4.420258 10.1117c-6.543714 14.92198-9.663896 27.446042-9.042748 36.113214 0.7656 10.660621 9.938356 31.1007 25.842615 57.550017l3.726884 6.211473-25.669272 15.355339a24.383642 24.383642 0 0 1-12.668516 3.539095z m-10.675066-115.143371c-39.753426 0-84.649373 22.823551-116.053424 42.599147a10.1117 10.1117 0 0 0 4.579156 18.778871l85.414973 7.554884a24.672548 24.672548 0 0 1 18.93777 11.85958l9.028303 15.037542a10.198372 10.198372 0 0 0 13.954146 3.495759l13.275217-7.944907c-15.16755-26.001514-23.300246-45.459314-24.181408-57.781142-0.635593-8.999413 1.444529-20.093392 6.254809-33.094149-1.5312-0.072226-3.047955-0.158898-4.53582-0.260015q-3.30797-0.24557-6.673722-0.24557z" fill="#d4237a" p-id="7299"></path><path d="M442.806667 349.174042c-18.778871-1.979004-43.335857-2.54237-67.892842 2.889057-31.909636 37.225501-69.33737 89.28631-77.065598 135.785684l23.04023-14.214161a17.334343 17.334343 0 0 1 16.640969-0.881163l8.667171 4.131352a17.334343 17.334343 0 0 0 20.295627-3.914672l87.307305-94.717738a17.334343 17.334343 0 0 0-10.992862-29.078359z" fill="#d4237a" p-id="7300"></path><path d="M288.097659 502.337404l2.585706-15.658689c8.074915-48.666167 47.264974-102.633754 78.726806-139.339225l1.560091-1.834551 2.354582-0.52003c21.162343-4.665827 44.780385-5.676997 70.189642-3.004619a24.556985 24.556985 0 0 1 15.514237 41.183509l-87.292861 94.717737a24.556985 24.556985 0 0 1-28.746118 5.532544l-8.667171-4.131352a10.1117 10.1117 0 0 0-9.736123 0.520031z m90.687503-143.745036c-26.333756 30.970692-57.69447 73.786518-69.929628 113.973303l8.219368-5.05585a24.556985 24.556985 0 0 1 23.53137-1.25674l8.667171 4.131351a10.1117 10.1117 0 0 0 11.874025-2.282355l87.29286-94.732182a10.1117 10.1117 0 0 0-6.413706-17.016546c-15.860923-1.603427-39.507856-2.600151-63.198125 2.239019z" fill="#d4237a" p-id="7301"></path><path d="M838.203022 378.266847a17.334343 17.334343 0 0 1 10.963972-29.092805c25.120352-2.657933 60.814652-2.75905 92.550944 10.63173 56.336614 23.77694 133.893351 55.065428 207.723206 50.052914 43.408083-2.889057 93.302099 22.231294 127.118513 43.48031 14.069708 8.85496 8.782734 30.551779-7.786009 32.025198l-85.414974 7.554884a17.421014 17.421014 0 0 0-13.390779 8.378266l-9.028304 15.037542a17.334343 17.334343 0 0 1-23.906947 5.980348l-50.948522-30.493998a17.334343 17.334343 0 0 0-25.755944 10.487277 17.406569 17.406569 0 0 1-26.001514 10.371715l-63.299241-39.00227a17.334343 17.334343 0 0 0-16.640969-0.881163l-8.667172 4.131352a17.421014 17.421014 0 0 1-20.310071-3.914673z" fill="#d4237a" p-id="7302"></path><path d="M1145.93094 532.008021a24.470314 24.470314 0 0 1-12.610735-3.49576l-50.948522-30.493997a10.1117 10.1117 0 0 0-15.066432 6.124801 24.556985 24.556985 0 0 1-36.719916 14.67641l-63.313687-39.002271a10.1117 10.1117 0 0 0-9.721677-0.52003l-8.667171 4.131351a24.470314 24.470314 0 0 1-28.717228-5.532544l-87.307305-94.717737a24.629212 24.629212 0 0 1 15.514236-41.183509c25.438148-2.672378 62.764766-2.889057 96.11893 11.166206 62.562532 26.420427 135.121201 54.213157 204.429681 49.503993 45.199298-3.062401 96.407836 22.549091 131.452098 44.578151a24.556985 24.556985 0 0 1-10.992862 45.329306l-85.414974 7.554884a10.212817 10.212817 0 0 0-7.829344 4.896952l-9.028304 15.051988a24.658102 24.658102 0 0 1-21.176788 11.931806z m-68.759559-49.908462a24.441423 24.441423 0 0 1 12.639624 3.52465l50.962968 30.493997a10.198372 10.198372 0 0 0 13.954146-3.495759l9.013858-15.037542a24.715884 24.715884 0 0 1 18.952214-11.859579l85.414974-7.554885a10.1117 10.1117 0 0 0 4.56471-18.778871c-33.224157-20.887883-81.413629-45.184853-122.784927-42.382467-72.471997 4.911397-146.937444-23.545815-211.031176-50.5585-30.522888-12.89964-65.234909-12.62518-88.982959-10.1117a10.1117 10.1117 0 0 0-6.399262 17.016547l87.292861 94.732182a10.1117 10.1117 0 0 0 11.874025 2.282355l8.667171-4.131351a24.556985 24.556985 0 0 1 23.545815 1.256739l63.313687 39.002271a10.1117 10.1117 0 0 0 15.167549-6.06702 24.426978 24.426978 0 0 1 14.445286-16.510961 24.802555 24.802555 0 0 1 9.389436-1.820106z" fill="#d4237a" p-id="7303"></path><path d="M1149.441144 409.858686c43.408083-2.889057 93.302099 22.231294 127.118513 43.48031 14.069708 8.85496 8.782734 30.551779-7.786009 32.025198l-85.414974 7.554884a17.421014 17.421014 0 0 0-13.390779 8.378266l-9.028304 15.037542a17.334343 17.334343 0 0 1-23.906947 5.980348l-19.4578-11.6429c11.772908-19.587807 25.784835-45.719329 26.868231-60.771316 0.837827-11.845134-4.030235-26.738223-9.64945-39.522302 4.896952-0.028891 9.779458-0.187789 14.647519-0.52003z" fill="#d4237a" p-id="7304"></path><path d="M1145.93094 532.008021a24.470314 24.470314 0 0 1-12.610735-3.49576l-25.654827-15.355338 3.726884-6.211473c15.889814-26.449318 25.077016-46.889397 25.842616-57.550017 0.621147-8.667171-2.51348-21.191234-9.057194-36.113214l-4.333586-10.1117h10.992862c4.882507 0 9.663896-0.202234 14.185271-0.505585l0.491139 7.222643-0.491139-7.222643c45.199298-3.062401 96.407836 22.549091 131.452098 44.578151a24.556985 24.556985 0 0 1-10.992862 45.329306l-85.414974 7.554884a10.212817 10.212817 0 0 0-7.829344 4.896952l-9.028304 15.051988a24.556985 24.556985 0 0 1-21.277905 11.931806z m-18.475521-23.834722l13.289663 7.944907a10.198372 10.198372 0 0 0 13.954146-3.495759l9.013858-15.037542a24.715884 24.715884 0 0 1 18.952215-11.859579l85.414973-7.554885a10.1117 10.1117 0 0 0 4.56471-18.778871c-33.224157-20.887883-81.413629-45.184853-122.784927-42.382467-1.444529 0.101117-3.004619 0.187789-4.535819 0.260015 4.795835 13.000757 6.890401 24.094736 6.240363 33.094149-0.794491 12.350719-8.927186 31.765183-24.109182 57.810032z" fill="#d4237a" p-id="7305"></path><path d="M849.166994 349.174042c18.778871-1.979004 43.335857-2.54237 67.892842 2.889057 31.924081 37.225501 69.33737 89.28631 77.080043 135.785684l-23.112456-14.214161a17.334343 17.334343 0 0 0-16.640969-0.881163l-8.667172 4.131352a17.421014 17.421014 0 0 1-20.310071-3.914672l-87.29286-94.717738a17.334343 17.334343 0 0 1 11.050643-29.078359z" fill="#d4237a" p-id="7306"></path><path d="M1003.832666 502.337404l-36.561018-22.534645a10.1117 10.1117 0 0 0-9.721677-0.520031l-8.667171 4.131352a24.470314 24.470314 0 0 1-28.717228-5.532544l-87.307305-94.717737a24.629212 24.629212 0 0 1 15.514236-41.183509c25.423703-2.672378 49.113971-1.661208 70.189643 3.004619l2.354581 0.52003 1.574536 1.834551c31.461832 36.705471 70.651891 90.673057 78.712361 139.339225z m-41.891328-38.511131a24.556985 24.556985 0 0 1 12.914085 3.683548l8.219368 5.05585c-12.235157-40.186784-43.595872-83.002611-69.944073-113.973303-23.675823-4.839171-47.322755-3.914672-63.212569-2.239019a10.1117 10.1117 0 0 0-6.399262 17.016546l87.292861 94.732182a10.1117 10.1117 0 0 0 11.874024 2.282355l8.667172-4.131351a24.686993 24.686993 0 0 1 10.588394-2.426808z" fill="#d4237a" p-id="7307"></path><path d="M997.462295 591.652604c-76.993372-295.160519-311.584809-276.511655-351.482687-276.511655-43.942559 0-274.460425-18.648864-351.468242 276.511655-84.418249 323.762184 106.042841 419.491091 351.005993 425.124753h0.938943c244.948707-5.633661 435.467577-101.362568 351.005993-425.124753z" fill="#d4237a" p-id="7308"></path><path d="M646.542974 1024h-1.198959c-159.129265-3.669103-269.549028-44.939283-328.196887-122.669365-54.675406-72.486443-64.642653-177.301434-29.62728-311.527027 31.692956-121.528187 92.782069-205.224171 181.548348-248.762262 71.143031-34.89981 140.11927-33.744187 169.558762-33.224157 2.889057 0 5.30142 0.101117 7.35265 0.101117 1.820106 0 4.059125 0 6.673722-0.086671 26.492654-0.476694 96.783413-1.718989 168.576482 33.123039 89.893012 43.653653 151.574381 127.392973 183.224001 248.848934 35.015372 134.225593 25.048125 239.040585-29.641726 311.527027-58.633414 77.730081-169.009841 119.000262-328.196887 122.669365z m-0.953389-14.445286h0.751155c154.448993-3.567986 261.08409-42.902498 316.915119-116.920141 51.887466-68.78845 61.031331-169.443199 27.186027-299.190753-32.805243-125.861773-118.032428-275.081572-337.528541-271.19579-2.715714 0-5.041405 0.086672-6.933737 0.086671-2.109012 0-4.665827 0-7.59822-0.101117-175.856906-2.889057-289.165726 88.30403-336.892949 271.210236-33.845304 129.747555-24.686993 230.402304 27.200472 299.190753 55.831029 74.017643 162.451681 113.352155 316.900674 116.920141z" fill="#d4237a" p-id="7309"></path><path d="M519.568914 667.865931c3.929118 26.81045 8.277149 60.756871-7.395986 76.285553-17.666584 17.507686-56.986651 15.023097-89.228529 11.093979-52.985307-6.457043-96.63896-39.117833-96.63896-87.379532s43.26363-87.393977 96.63896-87.393978 89.632997 39.637863 96.624515 87.393978z" fill="#d4237a" p-id="7310"></path><path d="M453.048374 652.813943m-28.269423 0a28.269424 28.269424 0 1 0 56.538847 0 28.269424 28.269424 0 1 0-56.538847 0Z" fill="#d4237a" p-id="7311"></path><path d="M772.404747 667.865931c-3.929118 26.81045-8.277149 60.756871 7.395986 76.285553 17.666584 17.507686 56.986651 15.023097 89.228529 11.093979 52.970862-6.457043 96.63896-39.117833 96.63896-87.379532s-43.26363-87.393977-96.63896-87.393978-89.632997 39.637863-96.624515 87.393978z" fill="#d4237a" p-id="7312"></path><path d="M838.910841 652.813943m-28.269424 0a28.269424 28.269424 0 1 0 56.538848 0 28.269424 28.269424 0 1 0-56.538848 0Z" fill="#d4237a" p-id="7313"></path><path d="M608.782998 748.54285a13.188546 13.188546 0 0 1 0.317796-21.667928c9.143866-6.153692 22.361302-12.264047 38.20778-11.556228a78.741251 78.741251 0 0 1 34.321999 9.577224 13.217436 13.217436 0 0 1 1.733434 22.115732l-29.511719 22.592427a13.217436 13.217436 0 0 1-15.774251 0.202234z" fill="#d4237a" p-id="7314"></path><path d="M648.955337 858.890387c-31.12959 8.176032-60.987995 18.778871-88.506265 19.140003-34.567568 0.375577-65.75494-11.093979-94.631065-13.463006-60.164614-4.940288-97.476787-27.561605-97.809028-14.705301-0.621147 24.253634-4.145797 56.336614 14.069708 94.399941 70.969688 42.859162 171.046626 61.594697 263.438672 63.718154h0.938943c88.27514-2.036785 190.677769-19.587807 261.459668-63.718154 23.863612-56.148825 14.604184-96.523398 14.604184-96.523398s-36.604354 21.436804-89.026295 22.029061c-23.632487 0.260015-60.97355 7.757118-94.905526 6.471487-35.91098-1.386747-68.398427-11.700681-89.632996-17.348787z" fill="#d4237a" p-id="7315"></path><path d="M490.143868 866.113029c-3.582431-13.000757-14.098599-56.466621-2.773495-78.466791a3.120182 3.120182 0 0 0-4.333586-4.102461c-17.334343 10.38616-41.197954 33.570844-41.645758 82.598143a3.134627 3.134627 0 0 0 3.105736 3.105736l42.71471 0.621148a2.975729 2.975729 0 0 0 2.932393-3.755775z" fill="#d4237a" p-id="7316"></path><path d="M487.254811 873.480125h-0.101117l-42.729155-0.621147a6.745948 6.745948 0 0 1-6.659277-6.760394c0.462249-49.590665 23.863612-73.945417 43.408083-85.646098a6.717058 6.717058 0 0 1 9.403881 8.840515c-10.732847 20.858992-0.390023 63.342577 3.047955 75.866639a6.58705 6.58705 0 0 1-6.37037 8.320485z m-0.606702-6.413707z m-41.645759-1.444528l41.429079 0.592256c-4.579156-16.97321-13.275217-56.206606-3.03351-78.68347-17.623248 11.079534-37.846648 33.484172-38.395569 78.120104z" fill="#d4237a" p-id="7317"></path><path d="M414.176111 860.797164c3.79911-15.644244 17.70992-67.069461 40.360128-86.440588 2.889057-2.412363 1.560091-6.861511-1.820106-6.197028-21.942389 4.333586-56.986651 19.920049-84.244905 73.049809a3.293525 3.293525 0 0 0 1.198958 4.622491l39.767871 17.854373a3.726884 3.726884 0 0 0 4.738054-2.889057z" fill="#d4237a" p-id="7318"></path><path d="M410.521454 867.557558a6.413707 6.413707 0 0 1-2.629042-0.548921l-39.695645-17.854373a6.269254 6.269254 0 0 1-3.394642-3.741329 7.338205 7.338205 0 0 1 0.462249-5.778114c27.30159-53.216432 62.244735-70.117416 86.758385-74.942141a6.225918 6.225918 0 0 1 6.991518 3.409087 7.641556 7.641556 0 0 1-2.123457 9.086085c-21.841272 18.663309-35.535402 69.424042-39.204504 84.53381a7.872681 7.872681 0 0 1-4.116907 5.171413 6.977073 6.977073 0 0 1-3.047955 0.664483z m3.654657-6.731503z m-42.454694-17.998826l38.785592 17.43546a0.621147 0.621147 0 0 0 0.158898-0.288906c3.784665-15.528682 17.825482-67.53171 41.010165-87.899562-22.837996 4.969178-54.63207 21.393468-79.954655 70.724117z" fill="#d4237a" p-id="7319"></path><path d="M879.05429 860.797164c-3.79911-15.644244-17.695475-67.069461-40.360128-86.440588-2.889057-2.412363-1.545646-6.861511 1.834551-6.197028 21.942389 4.333586 56.972206 19.920049 84.244905 73.049809a3.30797 3.30797 0 0 1-1.213404 4.622491l-39.695644 17.854373a3.741329 3.741329 0 0 1-4.81028-2.889057z" fill="#d4237a" p-id="7320"></path><path d="M882.708947 867.557558a6.904846 6.904846 0 0 1-3.03351-0.707819 7.84379 7.84379 0 0 1-4.116906-5.171412c-3.669103-15.109769-17.334343-65.870502-39.19006-84.533811a7.670447 7.670447 0 0 1-2.137902-9.086085 6.240363 6.240363 0 0 1 7.005963-3.409087c24.556985 4.824725 59.456795 21.667928 86.758385 74.942141a7.395986 7.395986 0 0 1 0.462249 5.778114 6.31259 6.31259 0 0 1-3.394642 3.741329l-39.724535 17.868818a6.31259 6.31259 0 0 1-2.629042 0.577812z m-0.144453-7.583775a1.083396 1.083396 0 0 0 0.158898 0.288906l38.800037-17.43546c-25.337031-49.33065-57.131104-65.75494-79.954655-70.781899 23.184683 20.396743 37.225501 72.399771 40.99572 87.899562z" fill="#d4237a" p-id="7321"></path><path d="M803.100978 866.113029c3.567986-13.000757 14.098599-56.466621 2.773495-78.466791a3.120182 3.120182 0 0 1 4.333586-4.102461c17.334343 10.38616 41.183509 33.570844 41.631313 82.598143a3.120182 3.120182 0 0 1-3.091291 3.105736l-42.729155 0.621148a2.961284 2.961284 0 0 1-2.917948-3.755775z" fill="#d4237a" p-id="7322"></path><path d="M805.990036 873.480125a6.55816 6.55816 0 0 1-5.229194-2.556816 6.471488 6.471488 0 0 1-1.141177-5.778114c3.423533-12.524063 13.780802-55.007647 3.047955-75.866639a6.717058 6.717058 0 0 1 9.403881-8.840515c19.544471 11.700681 42.945834 36.113214 43.335856 85.646098a6.731503 6.731503 0 0 1-6.659276 6.760393l-42.71471 0.621148z m3.856891-85.920558c10.241707 22.476864 1.545646 61.71026-3.03351 78.68347l41.429079-0.592257c-0.563366-44.635932-20.830102-67.04057-38.395569-78.091213z" fill="#d4237a" p-id="7323"></path><path d="M359.24069 849.428725l57.159995 10.198371s-34.321998 67.892842-42.656928 60.049052-12.711851-70.34854-12.711851-70.34854" fill="#d4237a" p-id="7324"></path><path d="M375.332738 923.894171a5.879231 5.879231 0 0 1-4.07357-1.617872c-8.248258-7.742673-12.437391-54.270938-13.607459-69.640721a3.611321 3.611321 0 0 1 2.224574-6.789284h0.086672a3.79911 3.79911 0 0 1 0.808936-0.144453 3.625767 3.625767 0 0 1 2.455698 0.736709l58.590078 10.458387-2.195683 4.333586c-0.072226 0.158898-7.56933 14.965316-16.308728 29.815069-16.308727 27.720503-22.910223 32.068534-26.83934 32.761908a7.786009 7.786009 0 0 1-1.141178 0.086671z m-10.328379-69.799619c2.181238 27.648276 6.55816 56.755527 10.747293 62.403633 5.778114-2.585706 22.072396-28.818345 35.217606-54.213156z" fill="#d4237a" p-id="7325"></path><path d="M402.215415 852.548906s4.954733 71.706397 13.390779 80.749146 39.724535-63.154788 39.724536-63.154788l-54.892085-17.507686" fill="#d4237a" p-id="7326"></path><path d="M417.368519 937.689419a5.778114 5.778114 0 0 1-4.333585-1.935668c-8.262703-8.85496-12.870749-62.793656-14.12749-79.867984a3.611321 3.611321 0 0 1 2.311246-6.789284 3.77022 3.77022 0 0 1 0.823381-0.144453 3.567986 3.567986 0 0 1 3.091291 1.444529l55.166546 17.594357-1.588982 3.654658c0 0.158898-6.861511 15.803142-14.878644 31.476277-14.92198 29.165031-21.191234 33.830859-25.365921 34.553123a6.847065 6.847065 0 0 1-1.097842 0.014445z m-11.050643-79.44907c2.195683 27.893846 6.789284 64.714879 11.556228 71.908631 1.762325-1.141178 7.338205-6.413707 19.804487-30.85513 5.518099-10.805074 10.415051-21.537921 12.856304-26.983793z" fill="#d4237a" p-id="7327"></path><path d="M445.912403 866.373044s13.549678 70.781899 23.733605 78.914595S507.665999 872.526736 507.665999 872.526736l-63.660373-5.864786" fill="#d4237a" p-id="7328"></path><path d="M471.220544 949.462327a6.052575 6.052575 0 0 1-3.813556-1.343412c-9.981692-7.930462-21.119007-61.089112-24.441423-78.004542a3.611321 3.611321 0 0 1 1.357857-7.063744h0.115562a3.163518 3.163518 0 0 1 0.794491-0.24557 3.611321 3.611321 0 0 1 2.715714 0.563366l64.613762 5.951458-1.444529 4.333585c0 0.187789-6.124801 17.782146-13.549678 35.549848-13.795248 33.108594-20.310071 38.742256-24.455868 39.95566a6.875956 6.875956 0 0 1-1.892332 0.303351z m-20.74343-78.582353c5.590325 27.864956 15.008652 65.003785 20.989 71.186367 1.545646-0.982279 7.222643-6.327035 19.385573-35.564293 5.128076-12.292938 9.606115-24.556985 11.859579-30.797349z" fill="#d4237a" p-id="7329"></path><path d="M495.373061 870.143264s13.549678 70.781899 23.748049 78.914595 38.005546-72.760903 38.005547-72.760903l-63.674819-5.850341" fill="#d4237a" p-id="7330"></path><path d="M520.666756 953.232546a6.139246 6.139246 0 0 1-3.813555-1.343411c-9.967247-7.930462-21.119007-61.089112-24.441423-78.004542a3.611321 3.611321 0 0 1 1.357856-7.049299h0.130008a4.333586 4.333586 0 0 1 0.794491-0.24557 3.55354 3.55354 0 0 1 2.715713 0.577811l64.613762 5.951458-1.444528 4.333585c0 0.173343-6.124801 17.767701-13.535233 35.549848-13.795248 33.108594-20.324517 38.742256-24.455868 39.941215a6.399261 6.399261 0 0 1-1.921223 0.288905zM499.923326 874.650193c5.590325 27.864956 15.023097 65.003785 20.989 71.171922 1.560091-0.967834 7.222643-6.31259 19.400018-35.549848 5.128076-12.307383 9.606115-24.556985 11.845134-30.811794z" fill="#d4237a" p-id="7331"></path><path d="M927.417106 852.548906s-4.333586 62.519196-12.711852 70.348541-42.671373-60.049052-42.671373-60.049052l57.159995-10.212817" fill="#d4237a" p-id="7332"></path><path d="M913.116273 927.144361a6.399261 6.399261 0 0 1-1.155623-0.115563c-3.914672-0.678928-10.516168-5.041405-26.824895-32.761907-8.667171-14.835308-16.236501-29.641726-16.323173-29.800624l-2.181238-4.333586 58.590078-10.443941a3.640212 3.640212 0 0 1 2.441253-0.73671 3.77022 3.77022 0 0 1 0.823382 0.144453 3.625767 3.625767 0 0 1 2.239019 6.803729c-1.170068 15.369784-5.359201 61.898048-13.621904 69.640722a5.778114 5.778114 0 0 1-3.986899 1.603427z m-35.650965-61.609143c13.14521 25.380367 29.453937 51.62745 35.203161 54.213156 4.189133-5.648107 8.566054-34.755357 10.761738-62.403633z" fill="#d4237a" p-id="7333"></path><path d="M893.514021 855.770205s-4.954733 71.706397-13.39078 80.749146-42.108007-68.528435-42.108007-68.528435l57.290002-12.134039" fill="#d4237a" p-id="7334"></path><path d="M878.534259 940.867382a5.460318 5.460318 0 0 1-1.068951-0.101117c-4.232469-0.722264-10.703957-5.705888-26.694887-37.225501-8.667171-16.97321-15.990931-33.946421-16.063158-34.119764l-1.762325-4.04468 58.200056-12.264048a3.539095 3.539095 0 0 1 2.629042-0.881162 3.929118 3.929118 0 0 1 0.823381 0.144453 3.611321 3.611321 0 0 1 2.2968 6.789284c-1.25674 17.074327-5.864786 71.013024-14.127489 79.867984a5.662552 5.662552 0 0 1-4.232469 1.834551z m-35.434285-70.261869c12.711851 28.673892 28.746118 58.980101 34.9287 62.735875 4.723608-7.410431 9.3461-44.679268 11.556229-72.573114z" fill="#d4237a" p-id="7335"></path><path d="M849.874813 869.594343s-13.549678 70.781899-23.733604 78.914595-38.005546-72.760903-38.005546-72.760903l63.674818-5.864786" fill="#d4237a" p-id="7336"></path><path d="M824.566673 952.683625a6.875956 6.875956 0 0 1-1.848997-0.260015c-4.145797-1.213404-10.660621-6.847065-24.455868-39.955659-7.410431-17.782146-13.491897-35.362059-13.549678-35.549848l-1.444529-4.333586 64.599317-5.951457a3.611321 3.611321 0 0 1 2.730159-0.577812 3.654657 3.654657 0 0 1 0.794491 0.260015h0.072226a3.611321 3.611321 0 0 1 1.343412 7.0493c-3.322416 16.915429-14.445286 70.088525-24.441423 78.004541a6.052575 6.052575 0 0 1-3.79911 1.314521z m-31.490723-73.757627c2.253465 6.283699 6.731503 18.504411 11.85958 30.797348 12.191821 29.237258 17.839928 34.582014 19.400018 35.564293 5.965903-6.153692 15.384229-43.335857 20.974555-71.186367z" fill="#d4237a" p-id="7337"></path><path d="M800.414155 873.335672s-13.549678 70.781899-23.748049 78.914595-38.005546-72.760903-38.005546-72.760903l63.689264-5.850341" fill="#d4237a" p-id="7338"></path><path d="M775.106015 956.453845a6.543714 6.543714 0 0 1-1.863442-0.274461c-4.131352-1.213404-10.660621-6.847065-24.455868-39.941214-7.410431-17.782146-13.477451-35.376504-13.535233-35.549848l-1.444528-4.333585 64.555981-5.908122a3.582431 3.582431 0 0 1 2.730159-0.577811 4.463593 4.463593 0 0 1 0.780045 0.245569h0.130008a3.611321 3.611321 0 0 1 1.357857 7.063745c-3.322416 16.900984-14.445286 70.07408-24.441424 78.004542a6.06702 6.06702 0 0 1-3.813555 1.271185z m-31.490722-73.772073c2.239019 6.283699 6.717058 18.504411 11.859579 30.811794 12.206266 29.179477 17.825482 34.582014 19.428909 35.549847 5.965903-6.153692 15.398674-43.335857 20.989-71.171921zM555.335441 885.773063a31.779628 31.779628 0 0 1-9.288318-1.444529l-31.158481-9.432771a17.623248 17.623248 0 0 0-7.005964-0.635593l-48.796174 5.30142a31.880745 31.880745 0 0 1-18.562192-3.625767l-22.419083-12.191821a16.929875 16.929875 0 0 0-5.633662-1.863441l-49.691782-7.222643a7.224087 7.224087 0 0 1 2.065676-14.300833l49.691782 7.222643a31.12959 31.12959 0 0 1 10.501723 3.466868l22.346857 12.177376a17.334343 17.334343 0 0 0 10.111699 1.935668l48.723948-5.258083a32.054089 32.054089 0 0 1 12.769633 1.184513l31.187371 9.490553a17.43546 17.43546 0 0 0 10.891746-0.231125c14.315278-5.070295 51.251873-17.074327 85.039395-18.778871a7.232754 7.232754 0 1 1 0.751155 14.445285c-31.8663 1.545646-67.213914 13.101874-80.936934 17.95549a31.981862 31.981862 0 0 1-10.588395 1.805661z" fill="#d4237a" p-id="7339"></path><path d="M737.736061 885.773063a32.11187 32.11187 0 0 1-10.63173-1.805661c-13.708576-4.868061-49.113971-16.380954-80.893599-18.042161a7.232754 7.232754 0 0 1 0.751155-14.445286c33.801968 1.77677 70.781899 13.780802 85.053841 18.778871a17.493241 17.493241 0 0 0 10.8773 0.231125l31.201817-9.490553a32.010753 32.010753 0 0 1 12.769633-1.184513l48.709502 5.388091a17.334343 17.334343 0 0 0 10.1117-1.935668l22.317966-12.206266a31.057364 31.057364 0 0 1 10.487278-3.466869l49.706227-7.222643a7.224087 7.224087 0 0 1 2.065676 14.300833l-49.691782 7.222643a16.929875 16.929875 0 0 0-5.633662 1.863442l-22.317966 12.206266a31.981862 31.981862 0 0 1-18.562192 3.611321l-48.796174-5.301419a17.623248 17.623248 0 0 0-7.005964 0.635592l-31.187371 9.504998a31.779628 31.779628 0 0 1-9.331655 1.357857z" fill="#d4237a" p-id="7340"></path><path d="M654.863458 566.590034l34.943146-39.854543a11.093979 11.093979 0 0 1 17.969935 1.603427 11.065089 11.065089 0 0 0 18.244396 1.271185c23.372472-28.890571 76.314443-107.400698 43.335856-191.558931a99.67247 99.67247 0 0 0-5.012514-10.747293c-55.498787-15.153105-102.373738-12.191821-118.292443-12.191821-18.47552 0-69.929627-3.293525-129.097516 14.820863a29.150586 29.150586 0 0 0-4.26136 10.386161c-5.200303 26.348201-36.67658 110.347536 48.04502 193.870177a10.992862 10.992862 0 0 0 15.16755 0.375577l11.671791-10.429496a10.992862 10.992862 0 0 1 15.889814 1.198959l34.480896 41.067946a11.021753 11.021753 0 0 0 16.915429 0.187789z" fill="#d4237a" p-id="7341"></path><path d="M646.470748 577.684013h-0.130008a18.403294 18.403294 0 0 1-13.881919-6.630386l-34.553123-41.082392a4.073571 4.073571 0 0 0-2.75905-1.444528 3.813555 3.813555 0 0 0-2.889057 1.01117l-11.671791 10.429496a18.114388 18.114388 0 0 1-25.048125-0.606702c-79.44907-78.380119-60.294622-157.713627-52.089699-191.587822 0.837827-3.466869 1.560091-6.442597 2.02234-8.826069a36.532127 36.532127 0 0 1 5.301419-13.000757l1.444529-2.181239 2.499034-0.7656c53.592009-16.409844 101.116999-15.615354 123.868324-15.225331 2.889057 0 5.30142 0.086672 7.35265 0.086672 1.820106 0 4.059125 0 6.673722-0.086672 20.613422-0.375577 63.559256-1.126732 113.511054 12.538508l2.990174 0.808936 1.444528 2.715714a104.150509 104.150509 0 0 1 5.373646 11.556228c34.394225 87.379532-19.515581 168.143123-44.289245 198.752684a18.143279 18.143279 0 0 1-15.427565 6.86151 18.619973 18.619973 0 0 1-14.589738-8.869405 3.986899 3.986899 0 0 0-3.120182-2.036785 3.828001 3.828001 0 0 0-3.264635 1.444528l-34.943145 39.883434a18.417739 18.417739 0 0 1-13.824138 6.254808z m-51.613006-63.631482h1.314521a18.345513 18.345513 0 0 1 12.798523 6.58705l34.480897 41.125728a3.972454 3.972454 0 0 0 2.990174 1.444528 4.04468 4.04468 0 0 0 2.990174-1.444528l34.943146-39.868988a18.287731 18.287731 0 0 1 29.540609 2.585706 4.015789 4.015789 0 0 0 3.206853 2.166793 3.813555 3.813555 0 0 0 3.27908-1.444529c23.184683-28.688337 73.670956-104.078282 42.151343-184.379624-0.967834-2.455699-2.02234-4.839171-3.221299-7.222643-46.730499-12.278493-86.902838-11.556228-106.418418-11.209542-2.715714 0-5.041405 0.086672-6.933737 0.086672-2.109012 0-4.665827 0-7.59822-0.101117-21.667928-0.361132-66.448313-1.112287-116.703462 13.795248a21.812381 21.812381 0 0 0-1.979004 5.691442c-0.52003 2.672378-1.28563 5.778114-2.152348 9.418326-8.277149 34.177546-25.495929 105.262796 48.189473 177.908137a3.784665 3.784665 0 0 0 5.286974 0.130007l11.671791-10.429496a18.114388 18.114388 0 0 1 12.16293-4.83917z" fill="#d4237a" p-id="7342"></path><path d="M635.723455 13.537833l-59.22567 413.048494s6.413707 46.224914 65.711603 46.109351c59.875708 0 65.726049-46.687163 65.726049-46.687163l-59.22567-413.135165a6.572605 6.572605 0 0 0-12.986312 0.664483z" fill="#d4237a" p-id="7343"></path><path d="M642.166052 479.918321c-64.758215 0-72.703122-51.815239-72.775348-52.335269l-0.144453-1.01117L628.558594 12.598889a13.780802 13.780802 0 0 1 27.33048-1.04006v0.346686l59.312342 414.045219-0.115562 0.953389c0 0.534476-7.395986 52.970862-72.876466 53.014198z m-58.301172-53.447556c1.213404 5.994793 10.1117 39.002271 58.301172 39.00227h0.086672c48.781729 0 57.275557-33.513062 58.416735-39.536746l-58.373399-407.357052z m59.081218-412.369566z m-7.222643-0.563366z" fill="#d4237a" p-id="7344"></path><path d="M643.076105 212.637203h-1.068951c-19.790041-0.52003-33.498617-14.979761-34.061983-15.600908a7.222643 7.222643 0 0 1 10.545059-9.86613c0.202234 0.216679 10.400606 10.732847 24.008064 11.021752 8.378266 0.202234 16.69875-3.611321 24.629212-11.267322a7.2472 7.2472 0 1 1 10.1117 10.38616c-10.675066 10.169481-22.101287 15.326448-34.163101 15.326448zM642.57052 284.762514a64.902668 64.902668 0 0 1-41.010165-15.051988 7.226976 7.226976 0 0 1 9.519443-10.8773c1.28563 1.112287 30.3351 25.481484 62.779211-0.216679a7.222643 7.222643 0 0 1 8.956077 11.325104c-13.867474 10.906191-27.807175 14.820863-40.244566 14.820863zM644.231728 316.628813a91.872016 91.872016 0 0 1-49.417321-14.748636 7.222643 7.222643 0 0 1 8.320484-11.801798c1.574536 1.097842 39.161169 26.694888 81.370293-0.187789a7.225532 7.225532 0 0 1 7.757119 12.191821c-17.132109 10.906191-33.628625 14.546403-48.030575 14.546402zM643.104996 398.085778a127.24852 127.24852 0 0 1-64.339302-18.071052 7.225532 7.225532 0 0 1 7.872681-12.119594c2.253465 1.444529 54.892085 34.668685 109.567491 0a7.226976 7.226976 0 0 1 7.742673 12.206266 111.907627 111.907627 0 0 1-60.843543 17.98438z" fill="#d4237a" p-id="7345"></path><path d="M644.361736 427.698614a127.378528 127.378528 0 0 1-64.339302-18.056607 7.229865 7.229865 0 0 1 7.887126-12.119595c2.239019 1.444529 54.892085 34.668685 109.553045 0a7.222643 7.222643 0 1 1 7.742673 12.191821 111.907627 111.907627 0 0 1-60.843542 17.984381z" fill="#d4237a" p-id="7346"></path></svg>