<?xml version="1.0" standalone="no"?><!DOCTYPE svg PUBLIC "-//W3C//DTD SVG 1.1//EN" "http://www.w3.org/Graphics/SVG/1.1/DTD/svg11.dtd"><svg t="1641033218442" class="icon" viewBox="0 0 1024 1024" version="1.1" xmlns="http://www.w3.org/2000/svg" p-id="7548" xmlns:xlink="http://www.w3.org/1999/xlink" width="200" height="200"><defs><style type="text/css"></style></defs><path d="M854.817142 811.089738c46.052182-20.728887 118.562747-112.83325 118.562747-158.844893-16.120966-34.539136-115.103428-47.200784-115.103428-47.200784s124.31927-328.040716 36.83634-374.079384c-118.130332-17.729009-314.676395 122.819331-369.120127 163.898741a23.782817 23.782817 0 0 1-28.701535 0c-54.322116-41.092924-250.287121-181.587211-368.390427-163.871715-87.482929 46.025156 36.822827 374.052359 36.822827 374.052358S66.741077 617.705709 50.620111 652.244845c0 46.011643 72.524078 138.116006 118.562747 158.844893 0 0-58.700316 36.822827-49.497988 71.361963s165.750017 52.943793 202.586358 48.335873 59.132731 40.228094 189.735528 40.228094c129.440683 0 152.899189-44.822502 189.722016-40.228094s193.384029-13.810249 202.586358-48.389925-49.497987-71.307911-49.497988-71.307911z" fill="#d4237a" p-id="7549"></path><path d="M512.006756 977.77215c-83.010138 0-123.711186-18.093859-150.642523-30.079858-15.837194-7.040254-26.296228-11.702227-38.255201-10.202288-20.891042 2.621515-70.848471-1.581017-113.725106-9.553666-59.03814-10.972527-91.415202-25.674632-96.225817-43.741464-7.986162-29.971754 25.931378-59.592172 43.092842-72.34841C109.077193 783.226006 43.863629 698.621338 43.863629 652.244845v-1.499939l0.635109-1.351296c7.553747-16.215557 30.404169-29.728521 67.902645-40.187556a415.929035 415.929035 0 0 1 44.119827-9.607717c-8.215882-22.674754-32.160855-91.198995-48.64667-162.804191-27.512395-119.846478-21.512639-191.100338 17.823599-211.802199l1.013473-0.527006 1.135088-0.175669c120.130251-18.026294 316.20336 121.873423 373.471302 165.182473a17.120925 17.120925 0 0 0 20.553218 0c57.457123-43.30905 254.097777-183.208767 374.241541-165.155447l1.135089 0.175669 1.013472 0.527006c39.322725 20.701861 45.322482 91.955721 17.8236 211.802199-16.431764 71.61871-40.39025 140.129438-48.646671 162.804191a415.212847 415.212847 0 0 1 44.119828 9.607717c37.498475 10.472547 60.348898 23.999024 67.902644 40.187556l0.635109 1.351296v1.499939c0 46.430545-65.227078 130.981161-112.387322 159.601619 17.174977 12.756238 51.092517 42.376655 43.092843 72.348409-4.810615 18.05332-37.187677 32.768938-96.225818 43.741465-42.876635 7.972649-92.82055 12.161668-113.725105 9.553666-12.013025-1.486426-22.647728 3.18906-38.741668 10.283366-27.052954 11.918434-67.997235 29.971754-150.102006 29.971754z m-184.438446-54.051856c13.107575 0 24.877367 5.229517 39.282186 11.634662 27.44483 12.161668 65.01087 28.917743 145.15626 28.917743 79.253534 0 117.076321-16.674998 144.69682-28.850179 16.837153-7.418617 30.13391-13.283244 45.863-11.323863 16.931744 2.121535 63.632548-0.891856 109.576626-9.459075 59.457042-11.040092 83.19932-24.782776 85.645166-33.944566 6.499736-24.323335-31.404129-54.38968-46.552161-63.902807l-10.688755-6.756482 11.499533-5.175466c42.011805-18.91815 112.887302-106.941598 114.549396-151.12899-13.688633-24.75575-83.118242-38.714642-109.18475-42.052344l-8.486141-1.081037 3.026904-8.013188c0.310798-0.810778 31.187921-82.685827 50.984413-169.006642 25.309782-110.333352 21.850463-178.100867-9.999593-196.181212-115.062889-16.134479-306.744285 120.427536-362.877137 162.790678a30.687941 30.687941 0 0 1-36.849854 0c-55.98421-42.349629-247.084548-178.898132-362.147437-162.763652-31.836543 18.066833-35.309375 85.847861-9.999593 196.181212 19.810005 86.320815 50.673615 168.195864 50.984413 169.006642l3.040417 8.013188-8.499654 1.081037c-26.052995 3.337702-95.496117 17.32362-109.171237 42.052344 1.648582 44.187393 72.524078 132.224354 114.535883 151.12899l11.513046 5.175466-10.688755 6.756482c-15.148033 9.459075-53.051897 39.579472-46.565674 63.902807 2.445846 9.16179 26.228663 22.972039 85.645166 33.944566 45.944078 8.540193 92.658395 11.553584 109.576626 9.459074a49.997967 49.997967 0 0 1 6.134886-0.418901z" fill="#d4237a" p-id="7550"></path><path d="M205.721913 708.283107a99.901343 90.104445 90 1 0 180.208889 0 99.901343 90.104445 90 1 0-180.208889 0Z" fill="#d4237a" p-id="7551"></path><path d="M319.825381 677.06816m-27.782654 0a27.782654 27.782654 0 1 0 55.565308 0 27.782654 27.782654 0 1 0-55.565308 0Z" fill="#d4237a" p-id="7552"></path><path d="M638.055685 708.283107a99.901343 90.104445 90 1 0 180.20889 0 99.901343 90.104445 90 1 0-180.20889 0Z" fill="#d4237a" p-id="7553"></path><path d="M704.161106 677.06816m-27.782654 0a27.782654 27.782654 0 1 0 55.565308 0 27.782654 27.782654 0 1 0-55.565308 0Z" fill="#d4237a" p-id="7554"></path><path d="M393.376445 957.367574s44.349548-221.774767 128.602879-219.55864 108.698283 219.55864 108.698283 219.55864-64.321709 59.875944-118.630312 59.875944c-47.727789 0-118.670851-59.875944-118.67085-59.875944z" fill="#d4237a" p-id="7555"></path><path d="M512.006756 1024c-49.592578 0-120.022147-58.957062-122.967973-61.470474l-3.040417-2.567463 0.770239-3.918759c0.121617-0.554032 11.458994-56.659858 33.05271-111.752213 29.782573-76.13204 64.254144-114.211572 102.333678-113.238639s69.199889 39.836218 92.212466 115.3872c16.620946 54.578862 22.972039 109.603652 22.972039 110.14417l0.391876 3.391754-2.499898 2.310717c-2.702593 2.540437-66.902685 61.713707-123.22472 61.713707z m-111.171155-69.253941c13.972405 11.202247 71.943021 55.740977 111.171155 55.740977 45.214378 0 99.266234-45.065735 111.481954-55.795029-1.635069-12.729212-8.107778-58.781394-22.093696-104.441699-14.526436-47.633198-40.11999-104.617368-79.591359-105.671379h-1.067524c-39.065979 0-69.551226 56.754449-88.30722 104.509264-17.958729 45.63328-28.633971 92.063824-31.59331 105.657866z" fill="#d4237a" p-id="7556"></path><path d="M487.440188 800.225315l-9.796899 18.472222" fill="#d4237a" p-id="7557"></path><path d="M477.643289 825.454019a6.756482 6.756482 0 0 1-5.959217-9.932029l9.783386-18.472222a6.761887 6.761887 0 0 1 11.94546 6.33758l-9.796899 18.472222a6.756482 6.756482 0 0 1-5.97273 3.594449z" fill="#d4237a" p-id="7558"></path><path d="M550.586269 800.225315l9.796899 18.472222" fill="#d4237a" p-id="7559"></path><path d="M560.410194 825.454019a6.756482 6.756482 0 0 1-5.986243-3.594449l-9.783386-18.472222a6.756482 6.756482 0 0 1 11.931947-6.33758l9.796899 18.472222a6.756482 6.756482 0 0 1-2.810697 9.134764 6.607839 6.607839 0 0 1-3.14852 0.797265z" fill="#d4237a" p-id="7560"></path><path d="M392.471076 322.960936c-71.091704-46.173798-170.425503-106.009203-263.570364-92.036798-61.483987 32.350036-18.364118 204.045758 12.702186 303.163349 53.06541-33.025684 58.754368-129.143398 58.105745-176.452285a15.985837 15.985837 0 0 1 22.877449-14.63454c45.781922 21.458587 94.590749 24.553056 169.884984-20.039726z" fill="#d4237a" p-id="7561"></path><path d="M137.765216 544.465443l-2.608002-8.323985c-14.86426-47.579147-34.160773-117.049295-41.322644-177.871147-8.553706-72.794338 2.175587-117.643865 31.917621-133.291877l1.013472-0.527006 1.135089-0.175669c89.253128-13.377834 181.668289 36.822827 268.24585 93.063784l9.134764 5.932191-9.377997 5.553829c-36.674185 21.70182-69.051246 33.322969-98.995975 35.687738-26.012456 1.999919-50.565512-2.891774-77.267128-15.391266a9.229354 9.229354 0 0 0-13.161627 8.472628c0.662135 53.403234-6.418658 148.088573-61.335344 182.26286z m-6.688917-307.001031c-39.903783 22.688267-34.701292 126.440805 14.215638 285.731626 44.295496-36.201231 48.200743-126.751603 47.714276-165.439219a22.742319 22.742319 0 0 1 32.431114-20.87753c36.255283 16.985796 80.050799 26.755669 154.047791-14.215638-81.226427-52.051938-167.074288-96.847414-248.408819-85.199239z" fill="#d4237a" p-id="7562"></path><path d="M632.028903 322.960936c71.078191-46.173798 170.41199-106.009203 263.570365-92.036798 61.470474 32.350036 18.350605 204.045758-12.715699 303.163349-53.051897-33.025684-58.740855-129.143398-58.105746-176.452285a15.985837 15.985837 0 0 0-22.782857-14.675079c-45.822461 21.499126-94.577236 24.593595-169.966063-19.999187z" fill="#d4237a" p-id="7563"></path><path d="M886.761789 544.465443l-7.445643-4.60792c-54.930199-34.174286-62.010992-128.859626-61.348857-182.26286a9.229354 9.229354 0 0 0-13.161627-8.472628c-26.701617 12.499492-51.254673 17.391185-77.267128 15.391266-29.90419-2.310717-62.267739-13.985918-98.955436-35.687738l-9.364484-5.553829 9.134763-5.932191c86.577561-56.240957 178.979209-106.455131 268.24585-93.063784l1.135089 0.175669 1.013473 0.527006c29.728521 15.648012 40.538892 60.49754 31.904108 133.291877-7.148358 60.808338-26.417845 130.292-41.322644 177.871147z m-77.956289-209.748228a22.782857 22.782857 0 0 1 22.715292 23.039604c-0.472954 38.687616 3.41878 129.237989 47.714276 165.439219 48.930443-159.290821 54.132934-263.043359 14.229152-285.731626-81.334531-11.648175-167.182392 33.147301-248.408819 85.131674 74.010504 40.971307 117.806021 31.201434 154.04779 14.215638a22.890961 22.890961 0 0 1 9.702309-2.094509z" fill="#d4237a" p-id="7564"></path><path d="M496.642516 418.794877a934.89442 934.89442 0 0 0-35.593147-152.507312c-27.025928-82.712853-79.41569-202.964721 31.59331-251.111412 62.254226-27.025928 130.413616 14.702105 144.980592 70.956575s-0.081078 91.428715-47.376452 109.968501c-19.37759 7.607799-35.525583 2.526924-47.673738-5.783548a19.553259 19.553259 0 0 1 5.405186-34.849935c10.810371-3.310676 21.10725-7.864545 24.16118-13.729171 13.364321-25.674632 5.01331-54.308603-21.891002-57.659818-96.820388-12.067077-68.848552 85.280316-48.133178 164.682493 18.620865 71.226834 34.498597 167.439138 34.498597 167.439138" fill="#d4237a" p-id="7565"></path><path d="M491.27787 419.484039a937.110546 937.110546 0 0 0-35.37694-151.520867c-2.243152-6.864586-4.621434-13.891327-7.148358-21.33697-27.255649-80.307546-64.591968-190.28956 41.741546-236.409307 29.390697-12.756238 61.943427-11.796818 91.644922 2.702593 30.187962 14.729131 52.876228 41.592903 60.713748 71.861943 7.688877 29.728521 7.445643 53.43026-0.743213 72.605156-8.364525 19.553259-24.674672 33.863488-49.889864 43.754978-18.05332 7.080793-36.268796 4.87818-52.70056-6.364606a24.958445 24.958445 0 0 1 6.905125-44.471165c16.296635-4.986284 20.080265-9.459075 20.945094-11.067118 6.594326-12.661647 7.459156-26.688104 2.243152-36.620132-3.932273-7.486182-10.810371-12.040051-19.999186-13.17514-24.607108-3.067443-41.34967 0.905369-51.200621 12.161668-22.485572 25.674632-6.634865 86.185685 7.337539 139.575406l1.621556 6.215963c18.445196 70.659289 34.41752 166.939158 34.566162 167.898579l-10.661729 1.756685c-0.162156-0.95942-16.053401-96.752823-34.363467-166.925645l-1.621556-6.202451c-14.607514-55.997723-31.268999-119.468115-5.01331-149.43987 12.161668-13.958892 32.633808-19.269487 60.659696-15.769629 12.648134 1.581017 22.688267 8.283447 28.242095 18.91815 6.932151 13.215679 6.10786 30.647403-2.216126 46.633239-3.364728 6.445684-12.31031 11.810331-27.377265 16.418251a14.148073 14.148073 0 0 0-3.959299 25.215191c13.512964 9.25638 27.877245 11.013066 42.646915 5.216005 44.592781-17.472263 58.105746-49.41691 44.119828-103.590383-7.053767-27.242136-27.620499-51.484393-54.997764-64.862228-26.823234-13.094062-56.159879-13.985918-82.60475-2.499898-97.185238 42.146935-63.146081 142.440154-35.809355 222.963907 2.540437 7.472669 4.932232 14.539949 7.20241 21.458587a946.569621 946.569621 0 0 1 35.809355 153.493759z" fill="#d4237a" p-id="7566"></path><path d="M485.697015 358.216259c11.296838-2.080996 26.904311-6.080834 38.674104-9.25638-3.526884-18.134398-7.661851-38.29574-12.161668-58.30844-16.215557 4.945745-31.985186 9.675282-40.174042 12.161668 5.621393 20.147829 10.12121 39.065979 13.661606 55.403152z" fill="#d4237a" p-id="7567"></path><path d="M480.481011 366.053779l-1.351296-6.405145c-4.053889-18.674916-8.580732-37.20119-13.512964-55.051816l-1.783711-6.378119 6.33758-1.905328c8.188856-2.459359 23.904433-7.188897 40.160529-12.161668l6.972689-2.108022 1.581017 7.094306c4.053889 17.837113 8.107778 37.525501 12.161668 58.484109l1.202654 6.175424-6.067321 1.635069c-11.445481 3.094469-27.539421 7.242949-39.187596 9.39151z m-0.162155-58.700316c3.78363 14.026457 7.337539 28.377225 10.567138 42.9442 8.107778-1.743172 17.566853-4.053889 25.674631-6.24299-3.121495-15.810168-6.256502-30.836584-9.323945-44.822502z" fill="#d4237a" p-id="7568"></path><path d="M449.739018 232.680823l43.876594-17.026335c-5.594367-22.661241-10.364443-45.349507-11.540071-65.402746-12.58057 2.55395-35.133707 1.878302-54.430219 0.581058 4.391713 27.539421 13.296757 55.632873 22.093696 81.848023z" fill="#d4237a" p-id="7569"></path><path d="M445.549999 241.545328l-2.256665-6.756482c-8.391551-24.971958-17.729009-54.051856-22.363955-82.929061l-1.351297-8.391551 8.472629 0.581058c24.728724 1.662095 42.930687 1.499939 52.70056-0.459441l7.634824-1.553991 0.459441 7.783467c1.22968 21.147789 6.756482 45.403559 11.337377 64.173067l1.432374 5.770035z m-9.769873-83.442554c4.337661 22.634215 11.364403 45.349507 18.120885 65.727058l31.741953-12.323824c-3.891734-16.215557-8.013188-35.444505-9.742848-53.52485-9.729334 0.972933-23.16122 1.013472-40.11999 0.121616z" fill="#d4237a" p-id="7570"></path><path d="M590.246819 196.101229c20.188368-7.918597 34.404007-18.91815 42.957712-33.187839l-60.632669-22.026132c-0.148643 0.283772-0.270259 0.567544-0.418902 0.851317-3.05393 5.864626-13.323783 10.418495-24.16118 13.729171a19.553259 19.553259 0 0 0-5.405186 34.849935c12.134642 8.323986 28.282634 13.391347 47.660225 5.783548z" fill="#d4237a" p-id="7571"></path><path d="M571.477311 206.560264a57.376046 57.376046 0 0 1-32.68786-10.62119 26.309741 26.309741 0 0 1 7.269975-46.889986c16.661485-5.094387 19.701902-9.553666 20.134316-10.391469l3.05393-6.148399 73.983479 26.890799-4.189019 7.013228c-9.39151 15.702064-24.52603 27.485369-46.295415 36.025563a57.930077 57.930077 0 0 1-21.269406 4.121454z m3.68904-57.551714c-4.64846 4.972771-12.837316 9.148277-25.188165 12.918393a12.648134 12.648134 0 0 0-8.999635 10.377957 12.499492 12.499492 0 0 0 5.405186 12.44544c13.121088 8.986121 27.025928 10.688755 41.390209 5.067361 15.431805-6.053808 26.917824-13.810249 34.849934-23.553096z" fill="#d4237a" p-id="7572"></path><path d="M492.642679 15.176153c-20.404576 8.850991-35.268836 20.134316-45.808948 33.18784l58.17331 41.187515c10.513086-5.770036 25.201678-7.972649 45.26843-5.472751a31.904108 31.904108 0 0 1 17.566853 7.648338l42.727993-51.876269c-28.971795-29.147464-74.861821-43.363102-117.927638-24.674673z" fill="#d4237a" p-id="7573"></path><path d="M568.626076 101.456429l-5.24303-4.688999a25.134113 25.134113 0 0 0-13.945379-5.986243c-17.566853-2.202613-31.498719-0.621596-41.187515 4.688999l-3.702552 2.040457-67.56482-47.795354 4.526843-5.60788c11.675201-14.458872 27.958323-26.282715 48.376411-35.133706 42.200987-18.310066 91.442228-8.107778 125.454359 26.107046l4.310635 4.337662z m-33.78241-25.161139a130.805492 130.805492 0 0 1 16.310147 1.081037 39.836218 39.836218 0 0 1 15.593961 5.161952l34.701292-42.133422c-29.796086-26.809721-70.794419-34.336442-106.076768-19.039766-15.715577 6.824047-28.620458 15.485857-38.471409 25.809761l48.768287 34.539136c8.134804-3.621474 17.783061-5.418699 29.133951-5.418698z" fill="#d4237a" p-id="7574"></path></svg>