<?xml version="1.0" standalone="no"?><!DOCTYPE svg PUBLIC "-//W3C//DTD SVG 1.1//EN" "http://www.w3.org/Graphics/SVG/1.1/DTD/svg11.dtd"><svg t="1641033223512" class="icon" viewBox="0 0 1233 1024" version="1.1" xmlns="http://www.w3.org/2000/svg" p-id="7780" xmlns:xlink="http://www.w3.org/1999/xlink" width="240.8203125" height="200"><defs><style type="text/css"></style></defs><path d="M196.449133 696.380256a371.303266 320.296919 0 1 0 742.606532 0 371.303266 320.296919 0 1 0-742.606532 0Z" fill="#d4237a" p-id="7781"></path><path d="M567.73906 1023.346414c-100.772216 0-195.555454-33.893078-266.902983-95.423485-71.627637-61.783839-111.069522-144.055583-111.069523-231.542673s39.441885-169.758834 111.069523-231.542673c71.347529-61.543746 166.130768-95.410147 266.902983-95.410147s195.568793 33.893078 266.916322 95.436824c71.627637 61.783839 111.069522 144.055583 111.069523 231.542673s-39.441885 169.758834-111.069523 231.542673c-71.347529 61.503731-166.130768 95.396809-266.916322 95.396808z m0-640.607175c-201.050908 0-364.634026 140.707625-364.634026 313.641017S366.688152 1010.007935 567.73906 1010.007935s364.647365-140.694286 364.647365-313.627679-163.636472-313.61434-364.647365-313.614341z" fill="#d4237a" p-id="7782"></path><path d="M356.884369 806.609454c-8.750043 14.005404 3.50802 103.493266 12.591525 161.262222 57.355464 31.318751 125.381711 49.459084 198.263166 49.459084 77.283153 0 149.030836-20.367859 208.467103-55.221307 7.816349-64.598258 5.148653-158.874635 5.148653-158.874634z" fill="#d4237a" p-id="7783"></path><path d="M567.73906 1024c-71.547606 0-141.201149-17.340024-201.411047-50.272731l-2.89445-1.573941-0.506862-3.24125c-23.182278-147.390203-14.498928-161.275561-11.657832-165.837321l1.947418-3.107866 434.661046-3.454666 0.186739 6.535855c0 0.947032 2.587665 95.516855-5.202008 159.861682l-0.400154 3.281266-2.841096 1.680648c-62.677517 36.720835-135.919111 56.128324-211.881754 56.128324z m-192.180819-60.423314c57.622233 30.811889 124.047863 47.084834 192.180819 47.084834 72.427946 0 142.281565-18.193687 202.224694-52.633642 6.082347-53.35392 5.335392-126.101989 4.868546-148.057127l-413.292801 3.281266c-1.814033 8.856751-3.174558 40.36224 14.018742 150.324669z" fill="#d4237a" p-id="7784"></path><path d="M377.705736 653.590412m21.261537 0l74.708827 0q21.261537 0 21.261537 21.261537l0 4.38836q0 21.261537-21.261537 21.261537l-74.708827 0q-21.261537 0-21.261537-21.261537l0-4.38836q0-21.261537 21.261537-21.261537Z" fill="#d4237a" p-id="7785"></path><path d="M377.705736 714.133773m21.261537 0l74.708827 0q21.261537 0 21.261537 21.261537l0 4.388359q0 21.261537-21.261537 21.261538l-74.708827 0q-21.261537 0-21.261537-21.261538l0-4.388359q0-21.261537 21.261537-21.261537Z" fill="#d4237a" p-id="7786"></path><path d="M328.473407 463.357011c-44.817293-16.112884-106.707839 32.359152-138.280022 90.101432-45.684294 83.392177-34.74674 207.466717 31.758921 246.988633 64.184765 38.148053 121.566906 26.783668 158.821281-32.572568 34.266555-54.594398 75.362412-258.673141-52.30018-304.517497z" fill="#d4237a" p-id="7787"></path><path d="M292.81965 829.271531c-23.208955 0-48.25862-7.629611-74.268656-23.088908-32.932707-19.56755-55.234645-60.396637-61.170269-112.043232-5.722208-49.725853 4.108252-102.172756 26.957068-143.90886 16.352976-29.851518 40.495625-57.195402 66.25223-75.02895 28.78444-19.927689 57.248756-26.383513 80.137587-18.153671 38.334791 13.765311 65.091782 41.922842 79.524017 83.672285 15.819437 45.764325 12.965002 96.570595 7.776334 131.130596-5.88227 39.268485-18.287056 78.336893-31.598859 99.545076-24.049279 38.34813-56.515139 57.875664-93.609452 57.875664z m17.086593-362.366484c-39.388531 0-88.033968 42.523074-113.923957 89.76797-45.991079 84.032424-31.478813 201.917909 29.344656 238.051851 61.357008 36.480743 114.564204 25.689912 149.764452-30.398395 22.1152-35.240264 49.352376-141.587965 22.515354-219.217918-13.045033-37.747898-37.080974-63.144364-71.42756-75.482458a47.845128 47.845128 0 0 0-16.272945-2.72105z" fill="#d4237a" p-id="7788"></path><path d="M757.132137 700.501846m-21.261537 0l-74.708826 0q-21.261537 0-21.261537-21.261537l0-4.38836q0-21.261537 21.261537-21.261537l74.708826 0q21.261537 0 21.261537 21.261537l0 4.38836q0 21.261537-21.261537 21.261537Z" fill="#d4237a" p-id="7789"></path><path d="M757.132137 761.058545m-21.261537 0l-74.708826 0q-21.261537 0-21.261537-21.261537l0-4.38836q0-21.261537 21.261537-21.261537l74.708826 0q21.261537 0 21.261537 21.261537l0 4.38836q0 21.261537-21.261537 21.261537Z" fill="#d4237a" p-id="7790"></path><path d="M806.351128 463.357011c44.830631-16.112884 106.707839 32.359152 138.29336 90.101432 45.657617 83.392177 34.680048 207.466717-31.758921 246.988633-64.198104 38.148053-121.566906 26.783668-158.834619-32.572568-34.266555-54.594398-75.349073-258.673141 52.30018-304.517497z" fill="#d4237a" p-id="7791"></path><path d="M842.004885 829.271531c-37.134328 0-69.546834-19.527535-93.596114-57.848987-13.33848-21.208183-25.716589-60.276591-31.598859-99.545076-5.188669-34.560002-8.003088-85.366272 7.776334-131.130596 14.432235-41.749442 41.175888-69.906973 79.510679-83.672285 22.90217-8.229842 51.366486-1.774018 80.150925 18.153671 25.756605 17.833548 49.899253 45.177432 66.238892 75.02895 22.862155 41.736104 32.679276 94.183007 26.957068 143.90886-5.935624 51.619917-28.224224 92.449004-61.156931 112.043232-25.996697 15.392606-51.059701 23.062232-74.281994 23.062231z m-33.3462-359.645434c-34.346586 12.338094-58.369188 37.73456-71.414222 75.469119-26.823683 77.643292 0.400154 183.990992 22.515354 219.231257 35.18691 56.021616 88.380768 66.879138 149.764453 30.398395 60.796792-36.133942 75.322396-154.059443 29.344656-238.051851-29.558072-54.007505-88.927646-101.852633-130.183564-87.04692z" fill="#d4237a" p-id="7792"></path><path d="M538.714528 1010.074627h-13.33848v-23.649125c0-12.364771 10.670784-22.408646 23.662463-22.408646l50.512824-0.240093c5.722208 0 10.363999-4.068236 10.363999-9.056828v-23.222293c0-5.00193-4.641791-9.070166-10.337322-9.070167l-50.499485 0.226754h-2.467619c-6.322439 0.066692-12.844956 0.133385-17.340024-4.281652a14.39222 14.39222 0 0 1-3.934852-10.670784v-7.402856c0-12.351432 10.670784-22.395308 23.662464-22.395308h48.885529c5.695531 0 10.323983-4.001544 10.323983-9.070166v-21.048121c0-5.00193-4.628453-9.070166-10.323983-9.070167H555.414305c-13.045033 0-23.662463-10.043875-23.662464-22.395308v-3.934851h13.33848v3.881497c0 4.988591 4.628453 9.056828 10.323984 9.056828h42.509735c13.045033 0 23.662463 10.057214 23.662464 22.408647v20.994767c0 12.351432-10.670784 22.408646-23.662464 22.408646h-48.885529c-5.695531 0-10.323983 4.001544-10.323983 9.056828v7.469549a6.66924 6.66924 0 0 0 0.093369 1.200463 34.106493 34.106493 0 0 0 7.669626 0.413493h2.560988l50.512824-0.226754c13.085049 0 23.702479 10.043875 23.702479 22.408646v23.262309c0 12.351432-10.670784 22.395308-23.675802 22.395308l-50.499485 0.240093c-5.735546 0-10.363999 4.068236-10.363999 9.070166z" fill="#d4237a" p-id="7793"></path><path d="M362.833331 812.385016m21.301553 0l78.617 0q21.301552 0 21.301553 21.301552l0 14.765698q0 21.301552-21.301553 21.301552l-78.617 0q-21.301552 0-21.301553-21.301552l0-14.765698q0-21.301552 21.301553-21.301552Z" fill="#d4237a" p-id="7794"></path><path d="M462.738546 873.088438h-78.617001a24.676188 24.676188 0 0 1-24.636172-24.636172V833.67323a24.662849 24.662849 0 0 1 24.636172-24.622834h78.617001a24.649511 24.649511 0 0 1 24.636172 24.622834v14.779036a24.662849 24.662849 0 0 1-24.636172 24.636172z m-78.617001-57.355464a17.980271 17.980271 0 0 0-17.966932 17.953594v14.779036a17.980271 17.980271 0 0 0 17.966932 17.966933h78.617001a17.980271 17.980271 0 0 0 17.966932-17.966933V833.67323a17.980271 17.980271 0 0 0-17.966932-17.953594z" fill="#d4237a" p-id="7795"></path><path d="M362.833331 866.872706m21.301553 0l78.617 0q21.301552 0 21.301553 21.301553l0 14.765697q0 21.301552-21.301553 21.301553l-78.617 0q-21.301552 0-21.301553-21.301553l0-14.765697q0-21.301552 21.301553-21.301553Z" fill="#d4237a" p-id="7796"></path><path d="M462.738546 927.589467h-78.617001a24.676188 24.676188 0 0 1-24.636172-24.622834v-14.792374a24.676188 24.676188 0 0 1 24.636172-24.636173h78.617001a24.662849 24.662849 0 0 1 24.636172 24.636173v14.792374a24.662849 24.662849 0 0 1-24.636172 24.622834z m-78.617001-57.355464a17.993609 17.993609 0 0 0-17.966932 17.966933v14.765697a17.980271 17.980271 0 0 0 17.966932 17.966933h78.617001a17.980271 17.980271 0 0 0 17.966932-17.966933v-14.792374a17.993609 17.993609 0 0 0-17.966932-17.966933z" fill="#d4237a" p-id="7797"></path><path d="M462.738546 924.308201h-78.617001a21.341568 21.341568 0 0 0-19.354134 12.484817c1.587279 10.924215 3.187897 21.474953 4.708483 31.132012q13.51188 7.389518 27.784054 13.751973h65.478598a21.341568 21.341568 0 0 0 21.341568-21.341568v-14.779036a21.341568 21.341568 0 0 0-21.341568-21.248198z" fill="#d4237a" p-id="7798"></path><path d="M462.738546 984.958269h-66.132184l-0.640247-0.293446c-9.537013-4.254975-18.967318-8.923443-28.010807-13.872019l-1.440556-0.786971-0.253431-1.613956c-1.680648-10.670784-3.267928-21.194845-4.708484-31.172027l-0.146723-0.97371 0.413493-0.893678a24.702865 24.702865 0 0 1 22.381969-14.432235h78.617001a24.649511 24.649511 0 0 1 24.636172 24.636172v14.765698a24.649511 24.649511 0 0 1-24.716203 24.636172z m-64.771659-6.66924h64.771659a17.980271 17.980271 0 0 0 17.966932-17.966932v-14.765698a17.980271 17.980271 0 0 0-17.966932-17.966932h-78.617001a18.07364 18.07364 0 0 0-15.912806 9.683736c1.333848 9.136859 2.774404 18.673872 4.308329 28.450978 8.256519 4.468391 16.806485 8.68335 25.423142 12.564848z" fill="#d4237a" p-id="7799"></path><path d="M772.551419 869.74048m-21.301552 0l-78.617001 0q-21.301552 0-21.301552-21.301553l0-14.765697q0-21.301552 21.301552-21.301553l78.617001 0q21.301552 0 21.301552 21.301553l0 14.765697q0 21.301552-21.301552 21.301553Z" fill="#d4237a" p-id="7800"></path><path d="M751.263206 873.088438h-78.63034a24.676188 24.676188 0 0 1-24.636172-24.636172V833.67323a24.662849 24.662849 0 0 1 24.636172-24.622834h78.63034a24.649511 24.649511 0 0 1 24.622833 24.622834v14.779036a24.662849 24.662849 0 0 1-24.622833 24.636172z m-78.63034-57.355464a17.993609 17.993609 0 0 0-17.966932 17.953594v14.779036a17.993609 17.993609 0 0 0 17.966932 17.966933h78.63034a17.980271 17.980271 0 0 0 17.953593-17.966933V833.67323a17.980271 17.980271 0 0 0-17.953593-17.953594z" fill="#d4237a" p-id="7801"></path><path d="M772.551419 924.254847m-21.301552 0l-78.617001 0q-21.301552 0-21.301552-21.301552l0-14.765698q0-21.301552 21.301552-21.301552l78.617001 0q21.301552 0 21.301552 21.301552l0 14.765698q0 21.301552-21.301552 21.301552Z" fill="#d4237a" p-id="7802"></path><path d="M751.263206 927.589467h-78.63034a24.676188 24.676188 0 0 1-24.636172-24.622834v-14.792374a24.676188 24.676188 0 0 1 24.636172-24.636173h78.63034a24.662849 24.662849 0 0 1 24.622833 24.636173v14.792374a24.662849 24.662849 0 0 1-24.622833 24.622834z m-78.63034-57.355464a17.993609 17.993609 0 0 0-17.966932 17.966933v14.765697a17.993609 17.993609 0 0 0 17.966932 17.966933h78.63034a17.980271 17.980271 0 0 0 17.953593-17.966933v-14.792374a17.993609 17.993609 0 0 0-17.953593-17.966933z" fill="#d4237a" p-id="7803"></path><path d="M672.632866 924.308201h78.63034a21.341568 21.341568 0 0 1 19.354134 12.484817c-1.587279 10.924215-3.201235 21.474953-4.708484 31.132012q-13.525219 7.336164-27.837407 13.738635h-65.491937a21.341568 21.341568 0 0 1-21.341568-21.341568v-14.765698a21.341568 21.341568 0 0 1 21.394922-21.248198z" fill="#d4237a" p-id="7804"></path><path d="M738.831742 984.958269h-66.198876a24.662849 24.662849 0 0 1-24.636172-24.636172v-14.765698a24.662849 24.662849 0 0 1 24.636172-24.636172h78.63034a24.716203 24.716203 0 0 1 22.381969 14.432235l0.413493 0.893678-0.146724 0.97371c-1.453894 10.017198-3.041173 20.514582-4.708483 31.172027l-0.26677 1.613956-1.440555 0.786971c-9.056828 4.948576-18.473795 9.617044-28.010808 13.872019z m-66.198876-57.355464a17.993609 17.993609 0 0 0-17.966932 17.966933v14.752359a17.993609 17.993609 0 0 0 17.966932 17.966932h64.784997c8.643335-3.881498 17.193301-8.096457 25.44982-12.564848 1.520587-9.710413 2.961143-19.274104 4.294991-28.450978a18.033625 18.033625 0 0 0-15.899468-9.683736z" fill="#d4237a" p-id="7805"></path><path d="M523.922153 517.617948a4.375021 4.375021 0 0 0 6.962687-5.255361c-24.422757-37.867945-53.70072-84.619317-56.835263-96.037056-5.468777-19.820981-4.068236-70.773975-41.349288-76.136043-31.58552-4.56176-67.252616-4.575099-77.363183-4.468391a4.508406 4.508406 0 0 1-4.094914-2.534311l-20.768013-42.229628a4.521745 4.521745 0 0 0-5.828916-2.174172l-83.405515 35.400326a4.521745 4.521745 0 0 1-4.73516-0.746955l-31.825613-27.770715a4.495068 4.495068 0 0 1-1.453895-4.281653l16.593069-84.285854a4.521745 4.521745 0 0 0-2.400926-4.908561l-67.572739-34.173185c-0.920355-0.466847-71.667653 14.032081-71.667653 14.03208a4.521745 4.521745 0 0 1-5.335392-5.495453l39.815363-164.063304a4.521745 4.521745 0 0 0-8.003088-3.734774L7.762995 140.925936a4.615114 4.615114 0 0 0-0.880339 2.667696L6.66924 198.814939a4.495068 4.495068 0 0 0 2.414265 4.001544L42.683136 220.409938a4.495068 4.495068 0 0 1 2.160834 2.507634l17.179962 48.79216a4.508406 4.508406 0 0 0 6.1357 2.667696l82.298422-37.347744a4.521745 4.521745 0 0 1 6.242408 5.268699l-20.661305 78.80374a4.508406 4.508406 0 0 0 1.200463 4.375021l81.16465 79.457325a4.521745 4.521745 0 0 0 5.335392 0.693601l75.309058-42.869874a4.535083 4.535083 0 0 1 5.828916 1.173786l39.521916 51.606579a4.535083 4.535083 0 0 0 5.335392 1.413879l59.596328-24.849589a4.495068 4.495068 0 0 1 5.121977 1.173787z" fill="#d4237a" p-id="7806"></path><path d="M527.163404 525.861128a10.964231 10.964231 0 0 1-8.243181-3.828143l-108.45518-123.260894-58.169111 24.276034a11.204323 11.204323 0 0 1-13.178418-3.521359l-38.401484-50.09933-73.615071 41.949519a11.231 11.231 0 0 1-13.33848-1.734002l-81.16465-79.457325a11.244339 11.244339 0 0 1-2.987819-10.830846l19.527534-74.442057-78.190169 35.507034a11.204323 11.204323 0 0 1-15.17919-6.482501l-16.899854-48.018528-32.852677-17.206639a11.137631 11.137631 0 0 1-5.988977-9.950506l0.213416-55.221307a11.150969 11.150969 0 0 1 2.160833-6.562532L99.15826 4.753394a11.204323 11.204323 0 0 1 20.00772 9.256905L80.070895 174.792336c5.962301-1.213802 19.060688-3.881498 32.225768-6.509178 37.881283-7.589595 37.881283-7.589595 40.508963-6.255747l67.586078 34.279893a11.244339 11.244339 0 0 1 5.908947 12.138017l-16.352977 83.085392 29.878195 26.06339 82.165037-34.866787a11.204323 11.204323 0 0 1 14.418896 5.335392l20.181121 41.042503c11.84457-0.080031 46.337879 0.120046 77.069737 4.548421 34.57334 4.975253 40.322225 41.922842 44.123691 66.372277a144.055583 144.055583 0 0 0 2.667696 14.592297c1.067078 3.841482 8.643335 20.714659 56.021616 94.116314a10.830846 10.830846 0 0 1-2.667696 14.805713 11.070938 11.070938 0 0 1-6.642563 2.320895z m1.774018-12.644879z m-117.872147-128.156115a11.190985 11.190985 0 0 1 8.403242 3.801467l89.687939 101.946002c-38.121376-60.223237-40.642348-69.360096-41.536026-72.588008a154.032766 154.032766 0 0 1-2.98782-16.139561c-4.401698-28.264239-9.910491-51.926702-32.852676-55.234645-31.078658-4.468391-66.332261-4.495068-76.389475-4.38836a11.351046 11.351046 0 0 1-10.150583-6.255747l-19.860996-40.415594-81.538128 34.613355a11.284354 11.284354 0 0 1-11.737863-1.867387l-31.812274-27.770715a11.190985 11.190985 0 0 1-3.628067-10.590753l16.272946-82.698576-64.304812-32.625922c-8.536627 1.413879-45.764325 8.910105-69.133342 13.698619a11.190985 11.190985 0 0 1-13.138402-13.605249l37.347744-153.619274-90.048079 122.980785-0.213415 53.220535 32.359152 16.979885a11.204323 11.204323 0 0 1 5.335392 6.202393l16.40633 46.577972 80.164265-36.387373a11.190985 11.190985 0 0 1 15.472637 13.018356l-20.354521 77.603277L221.872275 398.972169l73.828487-42.082905a11.257677 11.257677 0 0 1 14.432235 2.921128l38.52153 50.286069 58.062403-24.169326a11.097615 11.097615 0 0 1 4.348345-0.867001zM76.762952 175.472599z" fill="#d4237a" p-id="7807"></path><path d="M618.598684 515.443775a4.385692 4.385692 0 0 1-6.962686-5.335392c24.422757-37.854606 53.70072-84.605978 56.835263-95.970363 5.468777-19.807643 4.081575-70.760636 41.349287-76.122705 31.598859-4.56176 67.265954-4.575099 77.363184-4.46839a4.535083 4.535083 0 0 0 4.094913-2.534312l20.754675-42.229627a4.521745 4.521745 0 0 1 5.828916-2.174172l83.472207 35.467018a4.508406 4.508406 0 0 0 4.735161-0.746955l31.825613-27.770715a4.535083 4.535083 0 0 0 1.467233-4.281652l-16.593069-84.285855a4.535083 4.535083 0 0 1 2.387587-4.908561l67.57274-34.279893a4.508406 4.508406 0 0 1 2.974481-0.386816L1064.410699 179.834282c3.254589 0.680262 14.29885-2.587665 13.51188-5.815578l141.054425-102.946388c1.253817-6.295763 11.857909-2.347572 5.495454 2.667696l-56.808586 128.649639c-1.600618 1.533925-7.416195 0.3468-10.150583-0.333462l-15.606022-3.361297c-0.560216 0.186739-7.776334 0-10.297306 1.960757l-31.758921 17.606793a4.575099 4.575099 0 0 0-2.174172 2.507635l-17.179962 48.792159a4.521745 4.521745 0 0 1-6.135701 2.667696l-82.298421-37.347744a4.521745 4.521745 0 0 0-6.242409 5.2687l20.674644 78.803739a4.521745 4.521745 0 0 1-1.213802 4.375022l-81.151312 79.457325a4.521745 4.521745 0 0 1-5.335391 0.693601l-75.349074-42.963244a4.521745 4.521745 0 0 0-5.828915 1.173786l-39.521916 51.606579a4.521745 4.521745 0 0 1-5.335392 1.413879l-59.596329-24.809573a4.548422 4.548422 0 0 0-5.135315 1.187125z" fill="#d4237a" p-id="7808"></path><path d="M615.357433 523.686956a11.084277 11.084277 0 0 1-6.66924-2.320895 10.830846 10.830846 0 0 1-2.667696-14.805713c47.364942-73.36164 54.954537-90.274832 56.021616-94.129653a146.296448 146.296448 0 0 0 2.667696-14.578959c3.801467-24.449434 9.550352-61.357008 44.123692-66.372276 30.678504-4.428375 65.225167-4.628453 77.069737-4.548422l20.194459-41.029164a11.190985 11.190985 0 0 1 14.405558-5.335392l82.178375 34.880125 29.891533-26.050051-16.352976-83.085392a11.244339 11.244339 0 0 1 5.922285-12.138016l67.572739-34.279894a11.231 11.231 0 0 1 7.362841-0.973709l68.466418 14.378882a18.34041 18.34041 0 0 0 5.041945-1.200464l-0.186739-0.800308 143.028521-104.400283a10.670784 10.670784 0 0 1 19.114042 0.466847 9.56369 9.56369 0 0 1-2.54765 10.363999l-56.755232 128.556269-0.947032 0.907017c-3.094527 2.98782-8.003088 3.401312-16.272946 1.333848l-14.538943-3.16122h-0.520201a22.168554 22.168554 0 0 0-5.495453 0.640247l-0.160062 0.120047-31.612198 17.540101-16.899854 48.018528a11.204323 11.204323 0 0 1-15.192528 6.469162l-78.176831-35.440341 19.527534 74.442057a11.217662 11.217662 0 0 1-3.001158 10.830845l-81.137973 79.470664a11.257677 11.257677 0 0 1-13.33848 1.734002l-73.615071-41.949519-38.42816 50.112669a11.217662 11.217662 0 0 1-13.191757 3.521359l-58.169111-24.22268-108.45518 123.207539a10.937554 10.937554 0 0 1-8.25652 3.828144z m166.851046-183.430776c-13.938712 0-44.270415 0.506862-71.42756 4.415037-22.942185 3.307943-28.450978 26.970406-32.839338 55.234645a152.712257 152.712257 0 0 1-3.041173 16.006176c-0.893678 3.254589-3.414651 12.378109-41.536027 72.601346l89.701278-101.892648a11.177646 11.177646 0 0 1 12.698233-2.934465l58.062403 24.169325 38.534869-50.286069a11.231 11.231 0 0 1 14.418896-2.814419l73.841825 42.082904 79.110525-77.456553-20.367859-77.643292a11.190985 11.190985 0 0 1 15.459298-13.018356l80.164265 36.387373 16.40633-46.577972a11.084277 11.084277 0 0 1 5.335392-6.149039l31.372105-17.340024c3.347958-2.28088 8.096457-2.667696 12.338094-2.867773h0.213415l0.973709-0.320124 17.540101 3.77479a38.054683 38.054683 0 0 0 4.001544 0.760293l49.499099-112.40337-128.90307 94.076299a9.590367 9.590367 0 0 1-1.74734 2.467619c-4.094913 4.228298-14.152127 6.895994-18.980657 5.882269l-68.026248-14.272173-65.385229 33.226153 16.272946 82.698576a11.204323 11.204323 0 0 1-3.614728 10.590753l-31.825613 27.770715a11.297693 11.297693 0 0 1-11.724524 1.867387l-81.538128-34.613355-19.874335 40.415594a11.244339 11.244339 0 0 1-10.030537 6.255747h-0.106708z m283.52273-166.9044z" fill="#d4237a" p-id="7809"></path></svg>